<svg xmlns="http://www.w3.org/2000/svg" xmlns:xlink="http://www.w3.org/1999/xlink" xmlns:inkscape="http://www.inkscape.org/namespaces/inkscape" version="1.1" width="234" height="82.5" viewBox="0 0 234 82.5">
<defs>
<path id="font_1_1" d="M.041503908 .35327149C.041503908 .43784587 .05021159 .50591537 .06762695 .55747988 .08504232 .6090444 .11092123 .6488139 .14526367 .67678835 .17960613 .70476278 .22281902 .71875 .27490235 .71875 .3133138 .71875 .34700523 .711024 .37597657 .6955719 .4049479 .6801198 .4288737 .6578369 .4477539 .62872317 .46663413 .5996094 .4814453 .56414797 .4921875 .52233889 .5029297 .48053996 .5083008 .42418418 .5083008 .35327149 .5083008 .26934815 .49967448 .2016042 .48242188 .15003968 .46516929 .098475139 .43937174 .058624269 .4050293 .03048706 .37068687 .0023498536 .3273112-.01171875 .27490235-.01171875 .20589192-.01171875 .1516927 .013005574 .11230469 .062454225 .065104167 .12198385 .041503908 .21892293 .041503908 .35327149M.13183594 .35302735C.13183594 .2357076 .14558919 .15762837 .1730957 .11878967 .20060222 .07996114 .23453777 .060546876 .27490235 .060546876 .31526695 .060546876 .34920249 .08004252 .37670899 .11903381 .40421549 .15803528 .41796876 .23603313 .41796876 .35302735 .41796876 .4706726 .40421549 .5488281 .37670899 .5874939 .34920249 .62616989 .3149414 .6455078 .27392579 .6455078 .2335612 .6455078 .20133464 .6284485 .1772461 .59432986 .14697266 .55078127 .13183594 .47034709 .13183594 .35302735Z"/>
<path id="font_1_2" d="M.09082031 0V.10058594H.19091797V0H.09082031Z"/>
<path id="font_1_3" d="M.04736328 .6220703V.70703127H.5107422V.63827517C.46516929 .5897115 .42000328 .52522787 .37524415 .44482423 .33048503 .36442057 .29589845 .28173829 .27148438 .19677735 .25390626 .13688152 .24267578 .07128906 .23779297 0H.14746094C.1484375 .056315107 .1595052 .12434896 .18066406 .20410156 .20182292 .28385417 .23217774 .36075846 .27172853 .43481446 .3112793 .5088704 .35335288 .57128909 .39794923 .6220703H.04736328Z"/>
<path id="font_1_4" d="M.041503908 .18847656 .13378906 .1953125C.140625 .15055339 .15649414 .11690267 .18139649 .09436035 .20629883 .07181803 .23632813 .060546876 .27148438 .060546876 .3138021 .060546876 .34960938 .0764974 .37890626 .10839844 .40820313 .14029949 .42285157 .18261719 .42285157 .23535156 .42285157 .28548179 .4087728 .32503257 .38061524 .3540039 .35245768 .38297526 .31559245 .39746095 .27001954 .39746095 .24169922 .39746095 .21614583 .39094035 .19335938 .37789918 .17057292 .364858 .15266927 .34794108 .13964844 .32714845L.057128908 .3388672 .12646485 .70703127H.48242188V.6230469H.19677735L.15820313 .43037416C.20117188 .46051536 .24625652 .47558595 .29345704 .47558595 .35595704 .47558595 .4086914 .45391337 .45166017 .41056825 .4946289 .36723329 .5161133 .31151835 .5161133 .24342346 .5161133 .17857361 .49723307 .122528079 .45947267 .075286868 .41357423 .017283122 .35091148-.01171875 .27148438-.01171875 .2063802-.01171875 .15323894 .006556193 .11206055 .04310608 .070882167 .07965597 .04736328 .1281128 .041503908 .18847656Z"/>
<path id="font_1_5" d="M.17675781 .38893128C.14029949 .4022471 .11328125 .4212443 .095703128 .44592286 .078125 .47061158 .06933594 .50016787 .06933594 .5345917 .06933594 .5865631 .08805338 .630249 .12548828 .6656494 .16292317 .7010498 .21272786 .71875 .27490235 .71875 .33740235 .71875 .3876953 .7006429 .42578126 .6644287 .4638672 .62821456 .48291017 .5841268 .48291017 .5321655 .48291017 .4990336 .47420249 .47020469 .4567871 .4456787 .43937174 .42116294 .4129232 .4022471 .3774414 .38893128 .42138673 .37459819 .45483399 .35147096 .4777832 .31954957 .5007324 .28762818 .51220706 .2495168 .51220706 .20521546 .51220706 .14397685 .4905599 .09250895 .44726563 .050811769 .40397135 .009124756 .34700523-.01171875 .2763672-.01171875 .20572917-.01171875 .14876302 .009206136 .10546875 .05105591 .06217448 .092915859 .040527345 .14511617 .040527345 .20765686 .040527345 .25423686 .052327474 .2932434 .075927738 .3246765 .09952799 .35610963 .13313802 .37752787 .17675781 .38893128M.15917969 .5375824C.15917969 .5038808 .17008464 .47633363 .19189453 .4549408 .21370442 .43354798 .24202474 .42285157 .27685548 .42285157 .31070964 .42285157 .3384603 .43346659 .36010743 .45469667 .38175456 .47592674 .39257813 .50193789 .39257813 .5327301 .39257813 .56481429 .38142906 .5917918 .35913087 .6136627 .33683268 .6355438 .30908204 .6464844 .2758789 .6464844 .24235027 .6464844 .21451824 .63578799 .19238281 .61439517 .17024739 .5930023 .15917969 .5673981 .15917969 .5375824M.13085938 .20703125C.13085938 .18196614 .13680013 .15771485 .14868164 .13427735 .16056316 .110839847 .17822266 .092692058 .20166016 .079833988 .22509766 .066975917 .25032554 .060546876 .27734376 .060546876 .31933595 .060546876 .3540039 .07405599 .38134767 .10107422 .4086914 .12809246 .42236329 .16243489 .42236329 .20410156 .42236329 .24641927 .40828453 .28141276 .38012696 .30908204 .3519694 .3367513 .31673179 .35058595 .27441407 .35058595 .23307292 .35058595 .19881185 .33691407 .17163086 .3095703 .14444988 .28222657 .13085938 .24804688 .13085938 .20703125Z"/>
<clipPath id="clip_2">
<path transform="matrix(1,0,0,1,0,-17.5)" d="M37.234 77H101.121V79H37.234Z"/>
</clipPath>
<path id="font_3_1" d="M.5283203 .3125H.055664064V.39453126H.5283203V.3125Z"/>
<path id="font_1_6" d="M.3725586 0H.28466798V.5600586C.26350913 .5398763 .23575847 .51969406 .20141602 .49951173 .16707357 .47932945 .13623047 .46419273 .10888672 .45410157V.5390625C.15804036 .5621745 .20100911 .59016928 .23779297 .6230469 .2745768 .6559245 .3006185 .6878255 .31591798 .71875H.3725586V0Z"/>
<clipPath id="clip_4">
<path transform="matrix(1,0,0,1,0,-17.5)" d="M37.234 63H101.121V65H37.234Z"/>
</clipPath>
<path id="font_1_7" d="M.50341799 .08496094V0H.030273438C.029622397 .0211792 .033040365 .041549684 .040527345 .06111145 .052571615 .09336853 .07185873 .12513733 .09838867 .15641785 .12491862 .18770854 .1632487 .22387696 .2133789 .2649231 .29117839 .32877604 .34375 .37928263 .37109376 .41644288 .3984375 .45360313 .41210938 .488739 .41210938 .5218506 .41210938 .5565796 .3996582 .5858714 .37475587 .60972598 .34985353 .6335805 .3173828 .6455078 .27734376 .6455078 .23502605 .6455078 .20117188 .6328125 .17578125 .6074219 .15039063 .58203127 .13753255 .546875 .13720703 .5019531L.046875 .51171877C.053059896 .57910159 .07633463 .63045248 .11669922 .6657715 .1570638 .7010905 .21126302 .71875 .27929688 .71875 .34798179 .71875 .40234376 .6997121 .4423828 .66163638 .48242188 .6235606 .5024414 .57637026 .5024414 .5200653 .5024414 .49142967 .49658204 .4632772 .48486329 .4356079 .47314454 .40794883 .45369468 .37882487 .42651368 .34823609 .39933268 .3176473 .35416667 .27570597 .29101563 .22241211 .23828125 .17822266 .20442708 .14824422 .18945313 .1324768 .17447917 .11671957 .16210938 .10088094 .15234375 .08496094H.50341799Z"/>
<clipPath id="clip_5">
<path transform="matrix(1,0,0,1,0,-17.5)" d="M37.234 49H101.121V50H37.234Z"/>
</clipPath>
<path id="font_1_8" d="M.4975586 .54003909 .41015626 .5332031C.40234376 .5678609 .39127604 .59303286 .37695313 .6087189 .3531901 .6338959 .32389323 .6464844 .2890625 .6464844 .26106773 .6464844 .23649089 .6386922 .21533203 .6231079 .18766277 .6029765 .16585286 .57359316 .14990235 .5349579 .13395183 .4963328 .12565105 .44122315 .125 .3696289 .14615886 .40185548 .17203777 .42578126 .20263672 .44140626 .23323567 .45703126 .26529948 .46484376 .29882813 .46484376 .35742188 .46484376 .40730796 .44327799 .44848634 .40014649 .4896647 .35701499 .5102539 .30126954 .5102539 .23291016 .5102539 .18798828 .50056967 .14624024 .48120118 .107666019 .46183268 .0690918 .43522135 .03955078 .4013672 .019042969 .36751304-.0014648438 .32910157-.01171875 .2861328-.01171875 .21289063-.01171875 .15315755 .015197754 .106933597 .06903076 .060709638 .12287394 .037597658 .2116038 .037597658 .33522035 .037597658 .47347514 .06315104 .57399496 .11425781 .6367798 .15885417 .6914266 .21891277 .71875 .2944336 .71875 .3507487 .71875 .39689128 .70291647 .43286134 .6712494 .4688314 .63959249 .49039714 .5958557 .4975586 .54003909M.13867188 .23216248C.13867188 .2019399 .1451009 .17301433 .15795899 .14538574 .17081706 .117757167 .18880208 .096710208 .21191406 .08224487 .23502605 .06777954 .25927735 .060546876 .28466798 .060546876 .32177735 .060546876 .35367839 .0754954 .3803711 .105392459 .4070638 .13529969 .42041017 .17593384 .42041017 .22729492 .42041017 .27669273 .40722657 .3156128 .38085938 .34405519 .3544922 .37249757 .32128907 .38671876 .28125 .38671876 .24153646 .38671876 .20784505 .37249757 .18017578 .34405519 .15250652 .3156128 .13867188 .27831523 .13867188 .23216248Z"/>
<clipPath id="clip_6">
<path transform="matrix(1,0,0,1,0,-17.5)" d="M37.234 35H101.121V36H37.234Z"/>
</clipPath>
<clipPath id="clip_7">
<path transform="matrix(1,0,0,1,0,-17.5)" d="M37.234 35H101.121V36H37.234Z"/>
</clipPath>
<path id="font_1_9" d="M.25927735 0V.6308594H.0234375V.7158203H.5908203V.6308594H.3540039V0H.25927735Z"/>
<path id="font_1_10" d="M0-.0126953129 .20751953 .7285156H.27783204L.07080078-.0126953129H0Z"/>
<path id="font_1_11" d="M.3232422 0V.171875H.0126953129V.2529297L.33935548 .7158203H.4111328V.2529297H.5078125V.171875H.4111328V0H.3232422M.3232422 .2529297V.5739136L.099121097 .2529297H.3232422Z"/>
<path id="font_1_12" d="M.041992189 .19042969 .12988281 .20214844C.13997396 .15234375 .15714519 .11645508 .18139649 .09448242 .20564778 .072509769 .2351888 .061523439 .27001954 .061523439 .3113607 .061523439 .3462728 .07582092 .37475587 .10441589 .40323893 .13301087 .41748048 .1684316 .41748048 .2106781 .41748048 .25097148 .40429688 .28420005 .3779297 .31036378 .3515625 .3365275 .31803385 .34960938 .27734376 .34960938 .2607422 .34960938 .24007161 .34635417 .21533203 .33984376L.22509766 .4169922C.23095703 .41634117 .23567708 .41601563 .23925781 .41601563 .27669273 .41601563 .31038413 .42574058 .34033204 .44519044 .37027995 .4646403 .3852539 .4946238 .3852539 .535141 .3852539 .5672353 .37434898 .5938161 .35253907 .6148834 .33072917 .63595077 .30257163 .6464844 .2680664 .6464844 .23388672 .6464844 .20540364 .6357422 .18261719 .6142578 .15983074 .59277346 .1451823 .5605469 .13867188 .5175781L.05078125 .5332031C.061523439 .5921224 .0859375 .6377767 .12402344 .670166 .16210938 .70255538 .20947266 .71875 .26611329 .71875 .30517579 .71875 .34114585 .71039327 .37402345 .6936798 .40690104 .67696639 .43204753 .6541646 .4494629 .62527468 .46687828 .59639486 .47558595 .5657247 .47558595 .53326418 .47558595 .5024312 .46728517 .47435508 .4506836 .44903565 .43408204 .4237264 .40950523 .40360514 .37695313 .38867188 .41927085 .37890626 .45214845 .35864259 .47558595 .32788087 .49902345 .29711915 .5107422 .2586263 .5107422 .21240235 .5107422 .14990235 .48795573 .09692383 .4423828 .053466798 .3968099 .010009766 .33919273-.01171875 .26953126-.01171875 .20670574-.01171875 .15454102 .007044474 .11303711 .044570924 .0715332 .082097377 .047851564 .13071697 .041992189 .19042969Z"/>
<clipPath id="clip_8">
<path transform="matrix(1,0,0,1,0,-17.5)" d="M158.617 77H222.504V78H158.617Z"/>
</clipPath>
<clipPath id="clip_9">
<path transform="matrix(1,0,0,1,0,-17.5)" d="M158.617 57H222.504V58H158.617Z"/>
</clipPath>
<clipPath id="clip_10">
<path transform="matrix(1,0,0,1,0,-17.5)" d="M158.617 37H222.504V39H158.617Z"/>
</clipPath>
<path id="font_11_46" d="M.0309906-.0009765625H.24198914V.040008546L.18099976 .048034669 .16299439 .067092899V.6148071L.3909912-.0009765625H.43399049L.67099 .6248474V.05908203L.6609955 .045028688 .59498599 .040008546V-.0009765625H.83399966V.040008546L.7709961 .045028688 .7589874 .05908203V.61180117L.7709961 .62583926 .83399966 .63186648V.671875H.6199951V.64086917L.42999269 .1413269 .24198914 .64486697V.671875H.02999878V.63186648L.09599304 .62583926 .10899353 .61180117V.067092899L.09098816 .048034669 .0309906 .040008546V-.0009765625Z"/>
<path id="font_11_66" d="M.33399964 .057159425 .34700013-.0009765625H.48799134V.03501892L.43499757 .04005432 .4169922 .056152345V.34744264C.4169922 .4481964 .37298585 .49121095 .2679901 .49121095 .14199829 .49121095 .06599426 .43922425 .06599426 .3783722 .06599426 .35443116 .07398987 .34744264 .09700012 .34744264H.1659851V.4312439C.19299317 .44221498 .21699524 .4472046 .24198914 .4472046 .31399537 .4472046 .33399964 .41427613 .33399964 .33546449V.3035431C.13398743 .25552369 .041992189 .22546387 .041992189 .121292117 .041992189 .046157838 .09098816-.0068359377 .16999817-.0068359377 .21798706-.0068359377 .2709961 .015151978 .33399964 .058181764V.057159425M.33399964 .09223938C.28399659 .063186649 .24299622 .04714966 .20999146 .04714966 .1599884 .04714966 .12998963 .080215457 .12998963 .12930298 .12998963 .2024231 .19299317 .22947693 .33399964 .2685547V.09223938Z"/>
<path id="font_11_85" d="M.08799744 .42089845V.09803772C.08799744 .027069092 .10899353-.0029296876 .19198609-.0029296876 .23098755-.0029296876 .27598573 .004058838 .32299806 .019058228V.05606079C.2999878 .05105591 .2769928 .048065187 .2539978 .048065187 .18399048 .048065187 .17098999 .08105469 .17098999 .15701294V.42089845H.32299806V.4678955H.17098999V.5738983H.13398743L.09098816 .480896 .024993897 .45188905V.42089845H.08799744Z"/>
<path id="font_11_68" d="M.4249878 .042160036V.09416199C.3829956 .06616211 .34199525 .05215454 .2979889 .05215454 .19400025 .05215454 .12799073 .12516785 .12799073 .2481842 .12799073 .37419129 .18899536 .4512024 .2749939 .4512024 .2919922 .4512024 .30799867 .4461975 .32299806 .43721009V.3551941C.33799745 .34519959 .35299684 .3401947 .36799623 .3401947 .4019928 .3401947 .42399598 .3611908 .42399598 .39320375 .42399598 .4512024 .36999513 .49121095 .27398683 .49121095 .13398743 .49121095 .036987306 .39019776 .036987306 .24118042 .036987306 .09315491 .12599182-.0068359377 .2619934-.0068359377 .31599427-.0068359377 .36999513 .0101623539 .4249878 .042160036Z"/>
<path id="font_11_73" d="M.14099121 .7373047 .018997193 .7011719V.670166H.09599304V.05607605L.07899475 .040023805 .024993897 .03501892V-.0009765625H.24398804V.03501892L.19699097 .040023805 .1789856 .05607605V.3921051C.22200012 .4141693 .25898744 .42520143 .29100038 .42520143 .36499024 .42520143 .3919983 .39511109 .3919983 .32188417V.05607605L.375 .040023805 .32798768 .03501892V-.0009765625H.54599V.03501892L.49299623 .040023805 .47499085 .05607605V.33894349C.47499085 .43920899 .42799378 .49121095 .34098817 .49121095 .2979889 .49121095 .24598694 .46820069 .1789856 .43119813V.7373047H.14099121Z"/>
<path id="font_11_70" d="M.44799806 .10632324C.3909912 .06825256 .34098817 .048202516 .29100038 .048202516 .18998719 .048202516 .12298584 .12435913 .12298584 .25263978V.26365663H.44699098C.44799806 .2746582 .44799806 .2846527 .44799806 .29466249 .44799806 .41729737 .3769989 .49121095 .2679901 .49121095 .13398743 .49121095 .036987306 .38838197 .036987306 .2375946 .036987306 .090286258 .12799073-.0087890629 .2599945-.0087890629 .32299806-.0087890629 .3880005 .011199951 .44799806 .051208497V.10632324M.35899354 .30566407H.12799073C.13398743 .39038087 .19099427 .4461975 .25498963 .4461975 .32199098 .4461975 .35899354 .40234376 .35899354 .3216095V.30566407Z"/>
<path id="font_11_69" d="M.3829956 .670166V.4811859C.35198976 .48817445 .32199098 .4921875 .2939911 .4921875 .14199829 .4921875 .035995485 .3851776 .035995485 .22518921 .035995485 .08520508 .11999512-.0087890629 .22898865-.0087890629 .28399659-.0087890629 .33198548 .011199951 .3829956 .052200319V-.0009765625H.5309906V.03501892L.48298646 .040023805 .46598817 .05607605V.7373047H.42799378L.30599977 .7011719V.670166H.3829956M.3829956 .08816528C.34599305 .066207889 .30999757 .05419922 .27398683 .05419922 .18399048 .05419922 .12399292 .12519837 .12399292 .2421875 .12399292 .3671875 .19400025 .44818116 .29499818 .44818116 .31900025 .44818116 .34899903 .44218446 .3829956 .43217469V.08816528Z"/>
<path id="font_11_1" d=""/>
<path id="font_11_42" d="M.034988405-.0009765625H.28799439V.040008546L.22399903 .045028688 .20698548 .05908203V.61180117L.22399903 .62583926 .28799439 .63186648V.671875H.034988405V.63186648L.09899902 .62583926 .115997318 .61180117V.05908203L.09899902 .045028688 .034988405 .040008546V-.0009765625Z"/>
<path id="font_11_39" d="M.032989503-.0009765625H.2849884V.040008546L.21398926 .045043947 .19699097 .05909729V.31629945H.36099244L.375 .30122376 .3849945 .22789002H.43199159V.44947816H.3849945L.375 .3763275 .36099244 .3623047H.19699097V.62586978H.42199708L.43499757 .61083987 .44999696 .515625H.5049896V.671875H.024993897V.63186648L.08999634 .62586978 .10699463 .61183169V.05909729L.08999634 .045043947 .032989503 .040008546V-.0009765625Z"/>
<path id="font_11_38" d="M.032989503-.0009765625H.5479889V.16246033H.49598695L.47898866 .061080934 .46499635 .045013429H.19699097V.32606507H.36099244L.375 .31100465 .3849945 .23873902H.43199159V.45933534H.3849945L.375 .3861084 .36099244 .3720703H.19699097V.62586978H.42799378L.44198609 .6108246 .45599366 .5255432H.5119934V.671875H.032989503V.63186648L.08999634 .62586978 .10699463 .6118164V.059066774L.08999634 .045013429 .032989503 .040008546V-.0009765625Z"/>
<path id="font_11_87" d="M-.005004883 .48242188V.4454193L.055999757 .43937684 .21699524-.0009765625H.272995L.44799806 .43736268 .5069885 .4454193V.48242188H.32998658V.4454193L.38398744 .441391 .3919983 .42530824 .2639923 .09654236 .14698792 .42530824 .15899658 .441391 .21199036 .4454193V.48242188H-.005004883Z"/>
<path id="font_11_77" d="M.027999878-.0009765625H.2619934V.03501892L.20498657 .040039064 .18699646 .05609131V.7373047H.14898682L.026992798 .7011719V.670166H.10398865V.05609131L.08699036 .040039064 .027999878 .03501892V-.0009765625Z"/>
<path id="font_11_78" d="M.45399476 .42419435C.43099977 .46820069 .3929901 .49121095 .34399415 .49121095 .3019867 .49121095 .25 .47019959 .18399048 .43119813V.48620606H.1459961L.02999878 .4501953V.41918946H.100997928V.05607605L.083999637 .040023805 .02999878 .03501892V-.0009765625H.24899292V.03501892L.20098877 .040023805 .18399048 .05607605V.3921051C.22799683 .4141693 .2649994 .42520143 .2979889 .42520143 .35798646 .42520143 .38598634 .3921051 .38598634 .32188417V.05607605L.36898805 .040023805 .32099916 .03501892V-.0009765625H.5339966V.03501892L.4869995 .040023805 .46899415 .05607605V.3921051C.5119934 .41316224 .5499878 .42520143 .58200076 .42520143 .6439972 .42520143 .6719971 .3921051 .6719971 .32188417V.05607605L.6539917 .040023805 .6069946 .03501892V-.0009765625H.82499697V.03501892L.7719879 .040023805 .7549896 .05607605V.33894349C.7549896 .4382019 .7049866 .49121095 .6259918 .49121095 .58599856 .49121095 .5289917 .46820069 .45399476 .42419435Z"/>
<path id="font_11_79" d="M.02999878-.0009765625H.24899292V.03501892L.20098877 .040023805 .18399048 .05607605V.3921051C.22698975 .4141693 .2639923 .42520143 .29599 .42520143 .36999513 .42520143 .39698792 .39511109 .39698792 .32188417V.05607605L.37998963 .040023805 .33198548 .03501892V-.0009765625H.5509949V.03501892L.49699403 .040023805 .47999574 .05607605V.33894349C.47999574 .43920899 .43199159 .49121095 .34498597 .49121095 .3019867 .49121095 .25099183 .46820069 .18399048 .43119813V.48620606H.1459961L.02999878 .4501953V.41918946H.100997928V.05607605L.083999637 .040023805 .02999878 .03501892V-.0009765625Z"/>
<path id="font_11_33" d="M.69898989 .48817445H.644989L.6269989 .46517945C.59298709 .4831848 .5609894 .4921875 .5289917 .4921875 .45799256 .4921875 .3849945 .45417787 .33599855 .3881836 .2999878 .33917237 .27999879 .28016664 .27999879 .21716309 .27999879 .119155887 .33299256 .057159425 .4039917 .057159425 .44999696 .057159425 .49699403 .0851593 .5509949 .14115906V.13215637C.5509949 .08131409 .57699587 .05531311 .625 .05531311 .68899539 .05531311 .7649994 .09931946 .8149872 .17630005 .85198977 .23327637 .87098696 .2992401 .87098696 .37321473 .87098696 .56427 .73999026 .6923828 .5279999 .6923828 .41299439 .6923828 .2999878 .65037539 .22099304 .57829287 .125 .49017335 .07598877 .37921144 .07598877 .2462616 .07598877 .12831116 .11399841 .031219483 .18798828-.04006958 .2649994-.11433411 .36499024-.15332031 .47698976-.15332031 .57099917-.15332031 .6749878-.12432861 .7809906-.06517029L.7669983-.031036377C.68299868-.08023071 .59298709-.10432434 .5039978-.10432434 .2899933-.10432434 .14698792 .039260866 .14698792 .258255 .14698792 .37620545 .18798828 .47218324 .2709961 .5492554 .34199525 .6153259 .43299867 .6493683 .5419922 .6493683 .71099856 .6493683 .82499697 .53323367 .82499697 .37721253 .82499697 .2932434 .798996 .215271 .7549896 .16329956 .7259979 .12831116 .69299319 .111328128 .6669922 .111328128 .6419983 .111328128 .625 .12831116 .625 .15429688 .625 .16529846 .6269989 .18328858 .6329956 .20927429L.6719971 .38121034C.6799927 .41918946 .6859894 .45518495 .69898989 .48817445M.5529938 .45018006 .59399417 .39419557 .5529938 .18429566C.5179901 .14015198 .48399354 .11816406 .44799806 .11816406 .394989 .11816406 .36499024 .15615845 .36499024 .22917176 .36499024 .35917665 .43899537 .45217896 .5309906 .45217896 .5379944 .45217896 .54599 .45118714 .5529938 .45018006Z"/>
<path id="font_11_18" d="M.31098939 .6826172 .09399414 .6171875V.5751953L.25099183 .6031952V.0650177L.23899842 .04801941 .12399292 .042022706V-.0009765625H.45899964V.041015626L.35099793 .046020509 .33898927 .061019899V.6826172H.31098939Z"/>
<path id="font_11_23" d="M.44299317 .71424868C.19799805 .6982422 .049987794 .5332794 .049987794 .27729798 .049987794 .09727478 .147995-.01171875 .2829895-.01171875 .41999818-.01171875 .5249939 .092285159 .5249939 .22729492 .5249939 .35430909 .43598939 .4453125 .31698609 .4453125 .2579956 .4453125 .19898987 .42430116 .14698792 .38430787 .17799378 .5622711 .27999879 .65625 .43998719 .65625H.44299317V.71424868M.14498902 .3403015C.18598938 .3703003 .23498535 .38529969 .2899933 .38529969 .375 .38529969 .43399049 .32130433 .43399049 .21829224 .43399049 .11227417 .37399293 .03627014 .29100038 .03627014 .19699097 .03627014 .14299011 .120285037 .14299011 .27929688 .14299011 .29829408 .14299011 .31930543 .14498902 .3403015Z"/>
<path id="font_11_464" d="M.069992069-.0009765625H.1599884 .394989 .5079956 .5669861V.040008546C.4850006 .25222779 .4039917 .4654541 .32199098 .67871096H.2559967C.17599488 .4654541 .09700012 .25222779 .016998291 .039016725V-.0009765625H.069992069M.46099855 .0670166H.08799744L.27198792 .5735779 .46099855 .0670166Z"/>
<path id="font_11_34" d="M.28399659 .67871096 .049987794 .052017213-.008010864 .040008546V-.0009765625H.18798828V.040008546L.12298584 .045013429 .11299133 .059020997 .18399048 .25H.41999818L.49198915 .059020997 .4850006 .045013429 .4229889 .040008546V-.0009765625H.6499939V.040008546L.58999636 .052017213 .34999085 .67871096H.28399659M.2999878 .5735016 .40299989 .29599H.20098877L.2999878 .5735016Z"/>
<path id="font_11_53" d="M.015991211 .671875V.51786807H.070999149L.084991458 .61087039 .09899902 .62586978H.25299073V.05908203L.23498535 .045028688 .16799927 .040008546V-.0009765625H.42900086V.040008546L.3619995 .045028688 .34399415 .05908203V.62586978H.49798585L.5119934 .6108246 .526001 .51786807H.58099368V.671875H.015991211Z"/>
<path id="font_11_41" d="M.032989503 .671875V.63186648L.08999634 .62583926 .10699463 .61180117V.05908203L.08999634 .045028688 .032989503 .040008546V-.0009765625H.27598573V.040008546L.21398926 .045028688 .19699097 .05908203V.32899476H.54100039V.05908203L.5239868 .045028688 .46199037 .040008546V-.0009765625H.7049866V.040008546L.647995 .045028688 .6309967 .05908203V.61180117L.647995 .62583926 .7049866 .63186648V.671875H.46199037V.63186648L.5239868 .62583926 .54100039 .61180117V.375H.19699097V.61180117L.21398926 .62583926 .27598573 .63186648V.671875H.032989503Z"/>
<path id="font_11_14" d="M.04699707 .27401734V.20703125H.27198792V.27401734H.04699707Z"/>
<path id="font_11_22" d="M.100997928 .671875V.3416443C.12298584 .3456421 .1519928 .34765626 .18899536 .34765626 .32798768 .34765626 .39698792 .3005829 .39698792 .19743347 .39698792 .10429382 .33299256 .037200929 .23899842 .037200929 .21699524 .037200929 .19400025 .04121399 .17199707 .049224855L.13198853 .13534546C.12199402 .13734436 .11399841 .13835144 .10798645 .13835144 .07398987 .13835144 .049987794 .11631775 .049987794 .08526611 .049987794 .037200929 .11898804-.0087890629 .22200012-.0087890629 .38598634-.0087890629 .4889984 .088272098 .4889984 .21746826 .4889984 .33161927 .4039917 .4096527 .269989 .4096527 .23799134 .4096527 .20199585 .40464784 .16299439 .39364625V.5938721H.45899964V.671875H.100997928Z"/>
<path id="font_11_17" d="M.27799989 .6826172C.1349945 .6826172 .040985109 .55670168 .040985109 .3359375 .040985109 .1151886 .1349945-.01171875 .27799989-.01171875 .42099-.01171875 .5149994 .1151886 .5149994 .3359375 .5149994 .55670168 .42099 .6826172 .27799989 .6826172M.27799989 .63560488C.36999513 .63560488 .41999818 .5337219 .41999818 .3359375 .41999818 .13816834 .36999513 .03627014 .27799989 .03627014 .18598938 .03627014 .1349945 .13716126 .1349945 .33494569 .1349945 .5337219 .18598938 .63560488 .27799989 .63560488Z"/>
<path id="font_11_9" d="M.38598634 .71777346C.20799256 .69577029 .10598755 .5448761 .10598755 .28507997 .10598755 .029281617 .21199036-.12161255 .38598634-.14161682V-.099609378C.2519989-.07662964 .19099427 .04927063 .19099427 .28408814 .19099427 .52389529 .24899292 .65179446 .38598634 .67578127V.71777346Z"/>
<path id="font_11_6" d="M.18099976 .6826172C.09098816 .6826172 .0309906 .6056824 .0309906 .473938 .0309906 .33995057 .08999634 .26379396 .18099976 .26379396 .27198792 .26379396 .33099366 .34094239 .33099366 .473938 .33099366 .6056824 .2709961 .6826172 .18099976 .6826172M.60798647 .671875 .18099976-.0009765625H.24099732L.6689911 .671875H.60798647M.1789856 .64660647C.22999573 .64660647 .25898744 .5887146 .25898744 .473938 .25898744 .3590088 .23098755 .2998047 .1789856 .2998047 .12799073 .2998047 .100997928 .3590088 .100997928 .473938 .100997928 .5877228 .1289978 .64660647 .1789856 .64660647M.67099 .40705873C.58099368 .40705873 .5209961 .32991029 .5209961 .19779969 .5209961 .064193729 .5799866-.01171875 .67099-.01171875 .7619934-.01171875 .82099917 .06518555 .82099917 .19792176 .82099917 .32991029 .7609863 .40705873 .67099 .40705873M.6689911 .3720703C.7200012 .3720703 .7489929 .31285096 .7489929 .19792176 .7489929 .0831604 .72099307 .024276734 .6689911 .024276734 .6179962 .024276734 .59098818 .0831604 .59098818 .19792176 .59098818 .31184388 .61898806 .3720703 .6689911 .3720703Z"/>
<path id="font_11_10" d="M.0309906 .71777346V.67578127C.16799927 .65179446 .22599793 .52389529 .22599793 .28408814 .22599793 .04927063 .16499329-.07662964 .0309906-.099609378V-.14161682C.20498657-.12161255 .31098939 .029281617 .31098939 .28507997 .31098939 .5448761 .20899964 .69577029 .0309906 .71777346Z"/>
<path id="font_12_66" d="M.34298707 .05606079 .35598756-.0009765625H.5339966V.043014528L.48098756 .048034669 .46798707 .062072755V.32176209C.46798707 .4500122 .42099 .49902345 .2809906 .49902345 .14898682 .49902345 .06298828 .44000245 .06298828 .3828888 .06298828 .3558197 .07899475 .34580995 .10899353 .34580995H.20098877V.44000245C.21899414 .4440155 .23399353 .4460144 .24899292 .4460144 .31498719 .4460144 .34399415 .4139557 .34399415 .34179688V.31173707C.1349945 .26474 .039993287 .23579407 .039993287 .12107849 .039993287 .045196535 .09399414-.0087890629 .17098999-.0087890629 .22499085-.0087890629 .2789917 .014205933 .34298707 .0572052V.05606079M.34298707 .09812927C.3039856 .078186038 .27198792 .06820679 .24598694 .06820679 .19999695 .06820679 .17199707 .09713745 .17199707 .14302063 .17199707 .2088623 .22499085 .23480225 .34298707 .2607422V.09812927Z"/>
<path id="font_12_36" d="M.6009979 .024276734V.19610596H.5289917L.5039978 .07524109 .4889984 .060256959C.46499635 .054275514 .44499208 .05126953 .42799378 .05126953 .2789917 .05126953 .18798828 .15715027 .18798828 .3359375 .18798828 .51272585 .27799989 .61761477 .4149933 .61761477 .44099427 .61761477 .46699525 .61260989 .49398805 .6026306L.5079956 .5856476 .5269928 .47877503H.6009979V.6456146C.5339966 .6696167 .46598817 .6826172 .39698792 .6826172 .29299928 .6826172 .20799256 .6516113 .14498902 .5906372 .07699585 .52571108 .040985109 .43681336 .040985109 .33494569 .040985109 .20709229 .102996829 .095214847 .20698548 .03327942 .2559967 .004272461 .31900025-.01171875 .3909912-.01171875 .46398927-.01171875 .5339966 .0002746582 .6009979 .024276734Z"/>
<path id="font_12_83" d="M.0289917-.0009765625H.30499269V.044021608L.23399353 .048034669 .21899414 .063079837V.35095216C.25 .37001039 .27398683 .37904359 .2899933 .37904359 .31900025 .37904359 .33999635 .36799623 .35499574 .34292604H.40699769L.41999818 .48103334C.397995 .4920349 .37599183 .49804688 .35398866 .49804688 .34700013 .49804688 .33898927 .4970398 .33198548 .4960327 .29100038 .46704103 .25099183 .43304444 .21499634 .39404298L.21899414 .4960327H.17098999L.023986817 .44917298V.4091797H.09599304V.063079837L.08198547 .048034669 .0289917 .044021608V-.0009765625Z"/>
<path id="font_12_80" d="M.29599 .49902345C.13899231 .49902345 .036987306 .3970337 .036987306 .24310303 .036987306 .092163089 .13798523-.0078125 .28799439-.0078125 .44599916-.0078125 .5469971 .09315491 .5469971 .24110413 .5469971 .40003968 .44898988 .49902345 .29599 .49902345M.2919922 .4460144C.36299134 .4460144 .40899659 .37504579 .40899659 .24409485 .40899659 .114151 .36499024 .045181276 .29100038 .045181276 .22099304 .045181276 .17599488 .1161499 .17599488 .24710083 .17599488 .3760376 .22099304 .4460144 .2919922 .4460144Z"/>
<path id="font_12_84" d="M.394989 .47479249C.34399415 .49198915 .2939911 .5 .24398804 .5 .12098694 .5 .04798889 .43699647 .04798889 .35105897 .04798889 .29109193 .085998538 .25611878 .1599884 .21913147 .23799134 .18016052 .2919922 .17016602 .2919922 .11621094 .2919922 .07223511 .26098634 .04425049 .20698548 .04425049 .1769867 .04425049 .14898682 .051239015 .12298584 .06523132L.11299133 .07623291 .101989749 .16217041H.040985109V.014251709C.102996829-.002746582 .1579895-.0107421879 .20599365-.0107421879 .33499146-.0107421879 .4099884 .053237916 .4099884 .1541748 .4099884 .22613526 .35299684 .2531128 .2639923 .2960968 .20498657 .32507325 .17098999 .34205628 .17098999 .3840332 .17098999 .42100526 .19799805 .443985 .24699402 .443985 .269989 .443985 .2919922 .43800355 .31298829 .42800904L.32499696 .41700746 .33499146 .34179688H.394989V.47479249Z"/>
<path id="font_12_14" d="M.035995485 .29003907V.19203186H.2899933V.29003907H.035995485Z"/>
<path id="font_12_53" d="M.015991211 .671875V.49487306H.084991458L.100997928 .6018677 .116989139 .61486819H.23699951V.0690918L.21998596 .05303955 .15499878 .04801941V-.0009765625H.45399476V.04801941L.3889923 .05303955 .37199403 .0690918V.61486819H.49198915L.5069885 .6018219 .5239868 .49487306H.59298709V.671875H.015991211Z"/>
<path id="font_12_76" d="M.024993897-.0009765625H.2769928V.043014528L.22698975 .047027589 .21398926 .06109619V.2257843H.2630005L.3789978 .038009645V-.0009765625H.57099917V.043014528L.5119934 .048034669 .35299684 .30717469 .46699525 .43522645 .5319977 .44329835V.4873047H.32798768V.44329835L.37199403 .43826295 .3789978 .4271698 .23599243 .25878907H.21398926V.7402344H.17199707L.017990113 .6932831V.6542969H.09098816V.06309509L.07699585 .048034669 .024993897 .043014528V-.0009765625Z"/>
<path id="font_12_1" d=""/>
<path id="font_12_48" d="M.040985109 .33894349C.040985109 .12625122 .17799378-.015625 .3849945-.015625 .46899415-.015625 .548996 .015365601 .6100006 .07232666 .6799927 .13723755 .71699526 .22711182 .71699526 .33296205 .71699526 .44580079 .6749878 .5416565 .59799197 .6075592 .5369873 .6595459 .46398927 .6855469 .37799073 .6855469 .2849884 .6855469 .20698548 .6565399 .14399719 .5985718 .07598877 .5356598 .040985109 .44778443 .040985109 .33894349M.37998963 .62153628C.4889984 .62153628 .5669861 .5146942 .5669861 .32995606 .5669861 .1532135 .48799134 .04536438 .37799073 .04536438 .2709961 .04536438 .18998719 .1532135 .18998719 .33694459 .18998719 .5157013 .2689972 .62153628 .37998963 .62153628Z"/>
<path id="font_12_86" d="M.1639862 .49902345 .022994996 .45103456V.41204835H.08799744V.16217041C.08799744 .047210695 .13198853-.0087890629 .22499085-.0087890629 .27799989-.0087890629 .32998658 .014205933 .3929901 .0552063V-.0009765625H.58200076V.044021608L.5299988 .04801941 .5159912 .063064578V.49902345H.46998597L.32798768 .45091249V.41181947H.3929901V.09211731C.3600006 .08320618 .33198548 .07720947 .30699159 .07720947 .23799134 .07720947 .21199036 .111190799 .21199036 .18914795V.49902345H.1639862Z"/>
<path id="font_12_85" d="M.083999637 .4140625V.12310791C.083999637 .07211304 .084991458 .040115358 .11999512 .017105103 .14299011 .0011138916 .16999817-.0048828127 .20298767-.0048828127 .24398804-.0048828127 .29599 .0051116945 .35598756 .027114869V.07510376C.33599855 .070114139 .31498719 .068115238 .29100038 .068115238 .22499085 .068115238 .20799256 .09410095 .20799256 .1651001V.4140625H.35598756V.47406007H.20799256V.598053H.14498902L.09298706 .49404908 .018997193 .45205689V.4140625H.083999637Z"/>
<path id="font_12_68" d="M.46398927 .045181276V.11616516C.4149933 .08618164 .36799623 .07118225 .32499696 .07118225 .23199463 .07118225 .17098999 .14215088 .17098999 .26211549 .17098999 .37608338 .23199463 .44805909 .3019867 .44805909 .30899049 .44805909 .31698609 .44706727 .32699586 .44506837V.33909608C.34498597 .32609559 .3639984 .32009889 .38598634 .32009889 .42900086 .32009889 .45799256 .34909059 .45799256 .38807679 .45799256 .44906617 .3959961 .4970703 .29299928 .4970703 .14299011 .4970703 .034988405 .39007569 .034988405 .23812866 .034988405 .093170169 .12998963-.0078125 .2749939-.0078125 .33898927-.0078125 .3999939 .010177612 .46398927 .045181276Z"/>
<path id="font_12_78" d="M.5009918 .43003846C.47399903 .4760437 .43399049 .5000458 .38398744 .5000458 .33999635 .5000458 .28799439 .47703553 .21998596 .43704225V.4960327H.17199707L.0309906 .44903565V.4090271H.09599304V.063064578L.08198547 .048034669 .0309906 .044021608V-.0009765625H.27598573V.044021608L.23399353 .048034669 .21998596 .063064578V.39398194C.2519989 .40602113 .27999879 .41203309 .3039856 .41203309 .36799623 .41203309 .3939972 .37895204 .3939972 .30874635V.065078739L.37998963 .048034669 .33898927 .044021608V-.0009765625H.57499697V.043014528L.5299988 .048034669 .5159912 .063064578V.39198304C.548996 .40402223 .57699587 .41104127 .60198977 .41104127 .66799929 .41104127 .69400027 .37794496 .69400027 .30273438V.063064578L.6799927 .048034669 .6369934 .044021608V-.0009765625H.8829956V.044021608L.8299866 .048034669 .81700137 .063064578V.33181764C.81700137 .44303895 .7709961 .49804688 .6779938 .49804688 .6409912 .49804688 .58099368 .4760437 .5009918 .43003846Z"/>
<path id="font_12_70" d="M.4909973 .12402344C.43299867 .08717346 .3789978 .06919861 .32598878 .06919861 .22698975 .06919861 .16499329 .13708496 .16499329 .25187684V.2548828H.49198915V.27388C.49198915 .41796876 .4149933 .5 .28399659 .5 .13999939 .5 .036987306 .39494325 .036987306 .24189759 .036987306 .091171268 .1349945-.0087890629 .28399659-.0087890629 .35398866-.008987427 .42399598 .011016846 .4909973 .05001831V.12402344M.36099244 .3078766H.16999817C.17298889 .39494325 .21398926 .44499208 .27398683 .44499208 .32899476 .44499208 .36099244 .40196229 .36099244 .31887818V.3078766Z"/>
<path id="font_11_51" d="M.032989503 .671875V.63186648L.08999634 .62586978 .10699463 .6118622V.059143068L.08999634 .045043947 .032989503 .040008546V-.0009765625H.2709961V.040008546L.21398926 .045043947 .19699097 .059143068V.29867555C.21499634 .29968263 .23199463 .3006897 .24699402 .3006897 .33799745 .3006897 .3769989 .27452088 .4039917 .19200135 .4249878 .12757874 .42900086 .062164308 .47698976 .020019532 .5 .0011749268 .5329895-.0078125 .5779877-.0078125 .6009979-.0078125 .6259918-.0048217775 .6559906 .0011749268V.03918457H.6469879C.57099917 .03918457 .5389862 .051208497 .5169983 .110321048 .49899293 .15740967 .49798585 .21252442 .46998597 .25860597 .44999696 .29167176 .41600038 .31269837 .36698915 .32569886 .47499085 .34970094 .5289917 .4057312 .5289917 .49179078 .5289917 .6148529 .44999696 .671875 .28799439 .671875H.032989503M.19699097 .62586978H.24499512C.36898805 .62586978 .42900086 .58784487 .42900086 .4837799 .42900086 .38471986 .37199403 .34570313 .2519989 .34570313 .24598694 .34570313 .22799683 .34570313 .19699097 .34669496V.62586978Z"/>
<path id="font_11_45" d="M.026992798-.0009765625H.5059967V.18144226H.45399476L.43699647 .061065675 .4229889 .045013429H.19699097V.61180117L.21398926 .62583926 .2709961 .63186648V.671875H.026992798V.63186648L.08999634 .62583926 .10699463 .61180117V.059066774L.08999634 .045013429 .026992798 .040008546V-.0009765625Z"/>
<path id="font_11_55" d="M-.023010254 .671875V.63186648L.040985109 .6198578 .27598573-.0048828127H.34498597L.57499697 .6198578 .6369934 .63186648V.671875H.43798829V.63186648L.5 .6258545 .5099945 .6118469 .32899476 .10723877 .14099121 .6118469 .1519928 .6258545 .20999146 .63186648V.671875H-.023010254Z"/>
<path id="font_11_83" d="M.02999878-.0009765625H.2709961V.03501892L.20098877 .040039064 .18399048 .05607605V.3429718C.22499085 .39112855 .2599945 .41619874 .29299928 .41619874 .31399537 .4165039 .33099366 .4085083 .34399415 .39250184H.37599183V.47851563C.35499574 .48719789 .33599855 .49121095 .31599427 .49121095 .30799867 .49121095 .29899598 .49121095 .29100038 .48919679 .25498963 .46051026 .21899414 .42851258 .18399048 .39250184V.48651124H.1459961L.02999878 .4501953V.41918946H.100997928V.05607605L.08299255 .040023805 .02999878 .03501892V-.0009765625Z"/>
<path id="font_11_84" d="M.34399415 .46943666C.30999757 .48420716 .2709961 .49121095 .22698975 .49121095 .11299133 .49121095 .049987794 .43920899 .049987794 .35121156 .049987794 .2842102 .09399414 .25219728 .1789856 .21420288 .24499512 .1842041 .2809906 .16619873 .2809906 .11419678 .2809906 .06719971 .24499512 .033203126 .18699646 .033203126 .1579895 .033203126 .12998963 .04119873 .101989749 .0572052L.08999634 .14219666H.041992189V.012207031C.07699585-.00079345706 .12098694-.0087890629 .17199707-.0087890629 .2899933-.0087890629 .35899354 .048202516 .35899354 .14120484 .35899354 .1782074 .34498597 .20820618 .32099916 .22720337 .28799439 .25421144 .25 .26820375 .21499634 .28520204 .15899658 .31221009 .12998963 .33320619 .12998963 .37620545 .12998963 .4212036 .1599884 .4481964 .21299744 .4481964 .23699951 .4481964 .26098634 .4412079 .2869873 .42720033L.29499818 .3564453H.34399415V.46943666Z"/>
<path id="font_11_81" d="M.022994996-.21875H.2579956V-.18275452L.19400025-.17773438 .1769867-.16166687V.0060577394C.21398926 .000061035159 .24499512-.0029296876 .269989-.0029296876 .41799928-.0029296876 .5159912 .099090579 .5159912 .2571411 .5159912 .39718629 .43399049 .49121095 .32398988 .49121095 .2769928 .49121095 .22999573 .47120667 .1769867 .43119813V.48620606H.13899231L.022994996 .4501953V.41918946H.09399414V-.16166687L.07699585-.17773438 .022994996-.18275452V-.21875M.1769867 .05807495V.3941803C.21499634 .41619874 .24798584 .4282074 .28199769 .4282074 .36898805 .4282074 .42799378 .35917665 .42799378 .24414063 .42799378 .12109375 .3600006 .04206848 .2619934 .04206848 .23799134 .04206848 .20999146 .047058107 .1769867 .05807495Z"/>
<path id="font_11_52" d="M.05999756 .02027893C.10598755 .0002746582 .16799927-.01171875 .23999024-.01171875 .3999939-.01171875 .49899293 .071243289 .49899293 .18910218 .49899293 .23306275 .48399354 .27001954 .45498658 .2989807 .40899659 .3439331 .35499574 .35992433 .3039856 .3808899 .21199036 .41984559 .1639862 .44482423 .1639862 .51174929 .1639862 .584671 .21499634 .63261416 .2999878 .63261416 .33499146 .63261416 .36499024 .6256256 .3899994 .6116333L.40499879 .59465029 .41999818 .49975587H.47200013V.65460208C.41299439 .6736145 .35699464 .6826172 .3019867 .6826172 .1599884 .6826172 .070999149 .60365298 .070999149 .49076844 .070999149 .39387513 .1289978 .35691834 .23999024 .30897523 .34899903 .26202394 .40699769 .24404907 .40699769 .16113281 .40699769 .09121704 .35299684 .041275026 .2559967 .041275026 .21099854 .041275026 .17298889 .04927063 .14399719 .06425476L.1309967 .081222537 .11898804 .19610596H.05999756V.02027893Z"/>
<path id="font_11_80" d="M.2689972 .49121095C.13398743 .49121095 .036987306 .39019776 .036987306 .24121094 .036987306 .09320068 .1349945-.0087890629 .2689972-.0087890629 .40299989-.0087890629 .5019989 .09320068 .5019989 .24121094 .5019989 .38920594 .4039917 .49121095 .2689972 .49121095M.2689972 .4481964C.34999085 .4481964 .4079895 .37020875 .4079895 .24121094 .4079895 .111206058 .34999085 .034210206 .2689972 .034210206 .18899536 .034210206 .1309967 .112197879 .1309967 .24121094 .1309967 .37120057 .18798828 .4481964 .2689972 .4481964Z"/>
<path id="font_11_71" d="M.0289917-.0009765625H.2619934V.03501892L.19999695 .040023805 .18299866 .05606079V.42089845L.32299806 .4207611V.46777345H.18399048V.54086306C.18399048 .6249695 .20599365 .6770477 .24899292 .69706729L.33999635 .6369934C.3659973 .6439972 .3809967 .6630249 .3809967 .6870575 .3809967 .71910098 .34899903 .7441406 .30299378 .7441406 .18499756 .7441406 .099990848 .6450043 .099990848 .47877503V.46777345L.035995485 .45289613V.42089845H.099990848V.05606079L.08198547 .040023805 .0289917 .03501892V-.0009765625Z"/>
<path id="font_11_86" d="M.14199829 .49121095 .025985718 .45410157V.4230957H.09700012V.14318848C.09700012 .04322815 .14498902-.009765625 .23098755-.009765625 .27999879-.009765625 .33299256 .01322937 .3929901 .056228639V-.0009765625H.54100039V.03501892L.49398805 .040023805 .47599793 .05607605V.49121095H.43798829L.32199098 .45410157V.4230957H.3929901V.08314514C.35198976 .06422424 .31399537 .054229738 .2769928 .054229738 .20999146 .054229738 .17999268 .08821106 .17999268 .16018677V.49121095H.14199829Z"/>
<path id="font_12_67" d="M.15699768 .7402344 .008987427 .6932831V.6542969H.08099365V.0010223389L.19198609-.0009765625H.21899414C.29599-.0009765625 .35198976 .007019043 .3889923 .023010254 .49198915 .0690155 .5469971 .1550293 .5469971 .2710266 .5469971 .40603639 .46398927 .49804688 .34999085 .49804688 .30599977 .49804688 .25898744 .48303224 .20498657 .45303346V.7402344H.15699768M.20498657 .054016115V.41203309C.22898865 .41703797 .25 .42004396 .2679901 .42004396 .3600006 .42004396 .41299439 .3590393 .41299439 .24502564 .41299439 .11401367 .35798646 .053009035 .23699951 .053009035 .22698975 .053009035 .21598816 .053009035 .20498657 .054016115Z"/>
<path id="font_12_51" d="M.0309906 .671875V.62286379L.08999634 .6178589 .10598755 .60383608V.06913757L.08999634 .05303955 .0309906 .04801941V-.0009765625H.31298829V.04801941L.2519989 .05303955 .23599243 .06913757V.29553224H.25299073C.35398866 .29553224 .37998963 .2522583 .41099549 .15667725 .4269867 .10838318 .43598939 .06311035 .48799134 .023010254 .5119934 .0051574709 .548996-.0068359377 .59199526-.0068359377 .6230011-.0068359377 .6569977-.0038452149 .69200137 .001159668V.04801941L.67900088 .04916382C.6119995 .04916382 .58200076 .06417847 .5609894 .119262699 .5419922 .16934204 .5339966 .22341919 .5029907 .26748658 .47999574 .29953004 .44599916 .31852723 .397995 .3295288 .5109863 .3505249 .56999209 .40859986 .56999209 .50071719 .56999209 .6118622 .48999024 .671875 .33499146 .671875H.0309906M.23599243 .61486819H.28199769C.3789978 .61486819 .42999269 .5688019 .42999269 .4867096 .42999269 .3945923 .3789978 .35253907 .27198792 .35253907 .26098634 .35253907 .24899292 .35253907 .23599243 .35353089V.61486819Z"/>
<path id="font_12_81" d="M.022994996-.21972656H.2899933L.29100038-.17373657 .22799683-.16972351 .21299744-.1556549V.0050201418C.24598694 .0010223389 .272995-.0009765625 .29499818-.0009765625 .45700074-.0009765625 .55999758 .103012088 .55999758 .26301576 .55999758 .40301515 .47698976 .49902345 .37098695 .49902345 .32199098 .49902345 .27198792 .47702027 .21299744 .4360199V.49601747H.16799927L.021987915 .44917298V.4091797H.09098816V-.15364075L.07699585-.16871643 .022994996-.17373657V-.21972656M.21299744 .060012819V.39416505C.24299622 .40602113 .2689972 .41300965 .2919922 .41300965 .37298585 .41300965 .42399598 .35301209 .42399598 .24601746 .42399598 .12602234 .36499024 .053009035 .2769928 .053009035 .25698854 .053009035 .23599243 .055023195 .21299744 .060012819Z"/>
<path id="font_12_79" d="M.0309906-.0009765625H.27799989V.044021608L.23399353 .048034669 .21998596 .063064578V.39404298C.2579956 .40507508 .2899933 .41108705 .31498719 .41108705 .37799073 .41108705 .40499879 .37698365 .40499879 .30278016V.063064578L.3909912 .048034669 .34799195 .044021608V-.0009765625H.59298709V.044021608L.5399933 .048034669 .5269928 .063064578V.3318634C.5269928 .44308473 .48298646 .49809266 .3909912 .49809266 .34700013 .49809266 .29100038 .47608949 .21998596 .437088V.49609376H.17199707L.027999878 .44917298V.4091797H.09599304V.063079837L.08198547 .048034669 .0309906 .044021608V-.0009765625Z"/>
<path id="font_12_52" d="M.05899048 .022247315C.12098694 .00024414063 .18798828-.0107421879 .2519989-.0107421879 .41600038-.0107421879 .5169983 .07521057 .5169983 .19395447 .5169983 .25282289 .4850006 .30670167 .4269867 .34362794 .36799623 .38154603 .31498719 .3965149 .28399659 .41548158 .23098755 .44740296 .20298767 .4773407 .20298767 .523407 .20298767 .5785217 .24798584 .61860659 .32099916 .61860659 .35299684 .61860659 .37599183 .6136017 .3939972 .60458377L.4079895 .59054568 .4249878 .48632813H.49699403V.64860537C.43399049 .6706085 .37098695 .6826172 .30899049 .6826172 .1659851 .6826172 .07299805 .5965576 .07299805 .48532105 .07299805 .43643189 .09700012 .38752748 .14299011 .34861756 .18699646 .31169129 .23399353 .29473878 .27398683 .27478028 .34498597 .23886109 .3809967 .20292664 .3809967 .14904785 .3809967 .09416199 .33299256 .054244996 .2519989 .054244996 .22099304 .054244996 .19198609 .05923462 .1639862 .068222049L.15098572 .08319092 .1349945 .20292664H.05899048V.022247315Z"/>
<path id="font_12_73" d="M.1639862 .7402344 .015991211 .6932831V.6542969H.08898926V.063064578L.07499695 .048034669 .023986817 .044021608V-.0009765625H.2709961V.044021608L.22698975 .048034669 .21199036 .063064578V.39398194C.25 .40501405 .28199769 .41104127 .30799867 .41104127 .36999513 .41104127 .397995 .37693788 .397995 .30273438V.063064578L.38398744 .048034669 .34098817 .044021608V-.0009765625H.58599856V.044021608L.5329895 .048034669 .519989 .063064578V.33181764C.519989 .44303895 .47499085 .49804688 .3829956 .49804688 .33799745 .49804688 .28399659 .4760437 .21199036 .43704225V.7402344H.1639862Z"/>
<path id="font_11_36" d="M.58799746 .023269654V.18112183H.5319977L.5099945 .070236209 .49398805 .054260255C.46398927 .045272829 .43499757 .041275026 .40699769 .041275026 .24499512 .041275026 .1459961 .15315247 .1459961 .34292604 .1459961 .5217285 .24299622 .62960818 .3919983 .62960818 .43099977 .62960818 .46699525 .6206207 .5039978 .6036377L.5169983 .58566287 .5319977 .49476625H.58799746V.64860537C.5149994 .6716156 .44898988 .6826172 .3899994 .6826172 .18199158 .6826172 .042999269 .5437012 .042999269 .3359375 .042999269 .20509339 .10899353 .08921814 .21598816 .028274537 .2619934 .0022735596 .31999208-.01171875 .38598634-.01171875 .45298768-.01171875 .5219879 .0002746582 .58799746 .023269654Z"/>
</defs>
<path transform="matrix(1,0,0,1,0,-17.5)" d="M0 0H234V116.641H0Z" fill="#ffffff"/>
<path transform="matrix(1,0,0,1,0,-17.5)" d="M37.234 30.328H101.121V81.18H37.234Z" fill="#ffffff"/>
<path transform="matrix(1,0,0,1,0,-17.5)" stroke-width=".32" stroke-linecap="butt" stroke-linejoin="round" fill="none" stroke="#55585e" d="M46.047 81.18V82.781"/>
<use data-text="0" xlink:href="#font_1_1" transform="matrix(4.4,0,0,-4.4,41.777345,69.390628)" fill="#55585e"/>
<use data-text="." xlink:href="#font_1_2" transform="matrix(4.4,0,0,-4.4,44.223745,69.390628)" fill="#55585e"/>
<use data-text="7" xlink:href="#font_1_3" transform="matrix(4.4,0,0,-4.4,45.446947,69.390628)" fill="#55585e"/>
<use data-text="0" xlink:href="#font_1_1" transform="matrix(4.4,0,0,-4.4,47.893346,69.390628)" fill="#55585e"/>
<path transform="matrix(1,0,0,1,0,-17.5)" stroke-width=".32" stroke-linecap="butt" stroke-linejoin="round" fill="none" stroke="#55585e" d="M68.078 81.18V82.781"/>
<use data-text="0" xlink:href="#font_1_1" transform="matrix(4.4,0,0,-4.4,63.79297,69.390628)" fill="#55585e"/>
<use data-text="." xlink:href="#font_1_2" transform="matrix(4.4,0,0,-4.4,66.23937,69.390628)" fill="#55585e"/>
<use data-text="7" xlink:href="#font_1_3" transform="matrix(4.4,0,0,-4.4,67.46257,69.390628)" fill="#55585e"/>
<use data-text="5" xlink:href="#font_1_4" transform="matrix(4.4,0,0,-4.4,69.90897,69.390628)" fill="#55585e"/>
<path transform="matrix(1,0,0,1,0,-17.5)" stroke-width=".32" stroke-linecap="butt" stroke-linejoin="round" fill="none" stroke="#55585e" d="M90.105 81.18V82.781"/>
<use data-text="0" xlink:href="#font_1_1" transform="matrix(4.4,0,0,-4.4,85.83594,69.390628)" fill="#55585e"/>
<use data-text="." xlink:href="#font_1_2" transform="matrix(4.4,0,0,-4.4,88.28234,69.390628)" fill="#55585e"/>
<use data-text="8" xlink:href="#font_1_5" transform="matrix(4.4,0,0,-4.4,89.50554,69.390628)" fill="#55585e"/>
<use data-text="0" xlink:href="#font_1_1" transform="matrix(4.4,0,0,-4.4,91.95194,69.390628)" fill="#55585e"/>
<g clip-path="url(#clip_2)">
<path transform="matrix(1,0,0,1,0,-17.5)" stroke-width=".28" stroke-linecap="square" stroke-linejoin="round" fill="none" stroke="#e4e6e9" d="M37.234 77.902H101.121"/>
</g>
<path transform="matrix(1,0,0,1,0,-17.5)" stroke-width=".32" stroke-linecap="butt" stroke-linejoin="round" fill="none" stroke="#55585e" d="M37.234 77.902H35.637"/>
<use data-text="&#x2212;" xlink:href="#font_3_1" transform="matrix(4.4,0,0,-4.4,27.40625,61.976564)" fill="#55585e"/>
<use data-text="1" xlink:href="#font_1_6" transform="matrix(4.4,0,0,-4.4,29.975852,61.976564)" fill="#55585e"/>
<use data-text="8" xlink:href="#font_1_5" transform="matrix(4.4,0,0,-4.4,32.422254,61.976564)" fill="#55585e"/>
<g clip-path="url(#clip_4)">
<path transform="matrix(1,0,0,1,0,-17.5)" stroke-width=".28" stroke-linecap="square" stroke-linejoin="round" fill="none" stroke="#e4e6e9" d="M37.234 63.84H101.121"/>
</g>
<path transform="matrix(1,0,0,1,0,-17.5)" stroke-width=".32" stroke-linecap="butt" stroke-linejoin="round" fill="none" stroke="#55585e" d="M37.234 63.84H35.637"/>
<use data-text="&#x2212;" xlink:href="#font_3_1" transform="matrix(4.4,0,0,-4.4,27.445313,47.914064)" fill="#55585e"/>
<use data-text="1" xlink:href="#font_1_6" transform="matrix(4.4,0,0,-4.4,30.014914,47.914064)" fill="#55585e"/>
<use data-text="2" xlink:href="#font_1_7" transform="matrix(4.4,0,0,-4.4,32.461317,47.914064)" fill="#55585e"/>
<g clip-path="url(#clip_5)">
<path transform="matrix(1,0,0,1,0,-17.5)" stroke-width=".28" stroke-linecap="square" stroke-linejoin="round" fill="none" stroke="#e4e6e9" d="M37.234 49.777H101.121"/>
</g>
<path transform="matrix(1,0,0,1,0,-17.5)" stroke-width=".32" stroke-linecap="butt" stroke-linejoin="round" fill="none" stroke="#55585e" d="M37.234 49.777H35.637"/>
<use data-text="&#x2212;" xlink:href="#font_3_1" transform="matrix(4.4,0,0,-4.4,29.859375,33.851564)" fill="#55585e"/>
<use data-text="6" xlink:href="#font_1_8" transform="matrix(4.4,0,0,-4.4,32.428976,33.851564)" fill="#55585e"/>
<g clip-path="url(#clip_6)">
<path transform="matrix(1,0,0,1,0,-17.5)" stroke-width=".28" stroke-linecap="square" stroke-linejoin="round" fill="none" stroke="#e4e6e9" d="M37.234 35.715H101.121"/>
</g>
<path transform="matrix(1,0,0,1,0,-17.5)" stroke-width=".32" stroke-linecap="butt" stroke-linejoin="round" fill="none" stroke="#55585e" d="M37.234 35.715H35.637"/>
<use data-text="0" xlink:href="#font_1_1" transform="matrix(4.4,0,0,-4.4,32.4375,19.792969)" fill="#55585e"/>
<g clip-path="url(#clip_7)">
<path transform="matrix(1,0,0,1,0,-17.5)" stroke-width=".44" stroke-linecap="butt" stroke-dasharray="1.1,.88" stroke-linejoin="round" fill="none" stroke="#8b9098" d="M37.234 35.715H101.121"/>
</g>
<path transform="matrix(1,0,0,1,0,-17.5)" stroke-width=".36" stroke-linecap="square" stroke-linejoin="round" fill="none" stroke="#303236" d="M37.234 81.18V30.328"/>
<path transform="matrix(1,0,0,1,0,-17.5)" stroke-width=".36" stroke-linecap="square" stroke-linejoin="round" fill="none" stroke="#303236" d="M37.234 81.18H101.121"/>
<path transform="matrix(1,0,0,1,0,-17.5)" d="M41.711 35.414C42.207 35.414 42.688 35.215 43.039 34.863 43.391 34.512 43.586 34.035 43.586 33.535 43.586 33.039 43.391 32.562 43.039 32.211 42.688 31.859 42.207 31.66 41.711 31.66 41.215 31.66 40.734 31.859 40.383 32.211 40.031 32.562 39.836 33.039 39.836 33.535 39.836 34.035 40.031 34.512 40.383 34.863 40.734 35.215 41.215 35.414 41.711 35.414ZM41.711 35.414" fill="#9ecae1"/>
<path transform="matrix(1,0,0,1,0,-17.5)" stroke-width=".4" stroke-linecap="butt" stroke-linejoin="round" fill="none" stroke="#236192" d="M41.711 35.414C42.207 35.414 42.688 35.215 43.039 34.863 43.391 34.512 43.586 34.035 43.586 33.535 43.586 33.039 43.391 32.562 43.039 32.211 42.688 31.859 42.207 31.66 41.711 31.66 41.215 31.66 40.734 31.859 40.383 32.211 40.031 32.562 39.836 33.039 39.836 33.535 39.836 34.035 40.031 34.512 40.383 34.863 40.734 35.215 41.215 35.414 41.711 35.414ZM41.711 35.414"/>
<path transform="matrix(1,0,0,1,0,-17.5)" d="M96.277 48.352C96.773 48.352 97.25 48.152 97.602 47.801 97.953 47.449 98.152 46.973 98.152 46.473 98.152 45.977 97.953 45.5 97.602 45.148 97.25 44.797 96.773 44.598 96.277 44.598 95.777 44.598 95.301 44.797 94.949 45.148 94.598 45.5 94.398 45.977 94.398 46.473 94.398 46.973 94.598 47.449 94.949 47.801 95.301 48.152 95.777 48.352 96.277 48.352ZM96.277 48.352" fill="#6baed6"/>
<path transform="matrix(1,0,0,1,0,-17.5)" stroke-width=".4" stroke-linecap="butt" stroke-linejoin="round" fill="none" stroke="#236192" d="M96.277 48.352C96.773 48.352 97.25 48.152 97.602 47.801 97.953 47.449 98.152 46.973 98.152 46.473 98.152 45.977 97.953 45.5 97.602 45.148 97.25 44.797 96.773 44.598 96.277 44.598 95.777 44.598 95.301 44.797 94.949 45.148 94.598 45.5 94.398 45.977 94.398 46.473 94.398 46.973 94.598 47.449 94.949 47.801 95.301 48.152 95.777 48.352 96.277 48.352ZM96.277 48.352"/>
<path transform="matrix(1,0,0,1,0,-17.5)" d="M88.59 53.035C89.086 53.035 89.566 52.84 89.918 52.488 90.27 52.137 90.465 51.656 90.465 51.16 90.465 50.664 90.27 50.188 89.918 49.832 89.566 49.48 89.086 49.285 88.59 49.285 88.094 49.285 87.613 49.48 87.262 49.832 86.91 50.188 86.715 50.664 86.715 51.16 86.715 51.656 86.91 52.137 87.262 52.488 87.613 52.84 88.094 53.035 88.59 53.035ZM88.59 53.035" fill="#3182bd"/>
<path transform="matrix(1,0,0,1,0,-17.5)" stroke-width=".4" stroke-linecap="butt" stroke-linejoin="round" fill="none" stroke="#236192" d="M88.59 53.035C89.086 53.035 89.566 52.84 89.918 52.488 90.27 52.137 90.465 51.656 90.465 51.16 90.465 50.664 90.27 50.188 89.918 49.832 89.566 49.48 89.086 49.285 88.59 49.285 88.094 49.285 87.613 49.48 87.262 49.832 86.91 50.188 86.715 50.664 86.715 51.16 86.715 51.656 86.91 52.137 87.262 52.488 87.613 52.84 88.094 53.035 88.59 53.035ZM88.59 53.035"/>
<path transform="matrix(1,0,0,1,0,-17.5)" d="M75.051 79.004C75.547 79.004 76.023 78.805 76.379 78.453 76.73 78.102 76.926 77.625 76.926 77.129 76.926 76.629 76.73 76.152 76.379 75.801 76.023 75.449 75.547 75.25 75.051 75.25 74.555 75.25 74.074 75.449 73.723 75.801 73.371 76.152 73.176 76.629 73.176 77.129 73.176 77.625 73.371 78.102 73.723 78.453 74.074 78.805 74.555 79.004 75.051 79.004ZM75.051 79.004" fill="#08519c"/>
<path transform="matrix(1,0,0,1,0,-17.5)" stroke-width=".4" stroke-linecap="butt" stroke-linejoin="round" fill="none" stroke="#236192" d="M75.051 79.004C75.547 79.004 76.023 78.805 76.379 78.453 76.73 78.102 76.926 77.625 76.926 77.129 76.926 76.629 76.73 76.152 76.379 75.801 76.023 75.449 75.547 75.25 75.051 75.25 74.555 75.25 74.074 75.449 73.723 75.801 73.371 76.152 73.176 76.629 73.176 77.129 73.176 77.625 73.371 78.102 73.723 78.453 74.074 78.805 74.555 79.004 75.051 79.004ZM75.051 79.004"/>
<use data-text="T" xlink:href="#font_1_9" transform="matrix(4.24,0,0,-4.24,44.109376,25.472657)" fill="#202124"/>
<use data-text="1" xlink:href="#font_1_6" transform="matrix(4.24,0,0,-4.24,46.700017,25.472657)" fill="#202124"/>
<use data-text="/" xlink:href="#font_1_10" transform="matrix(4.24,0,0,-4.24,49.057458,25.472657)" fill="#202124"/>
<use data-text="2" xlink:href="#font_1_7" transform="matrix(4.24,0,0,-4.24,50.236177,25.472657)" fill="#202124"/>
<use data-text="0" xlink:href="#font_1_1" transform="matrix(4.24,0,0,-4.24,52.593618,25.472657)" fill="#202124"/>
<use data-text="T" xlink:href="#font_1_9" transform="matrix(4.24,0,0,-4.24,83.234378,24.929688)" fill="#202124"/>
<use data-text="2" xlink:href="#font_1_7" transform="matrix(4.24,0,0,-4.24,85.82501,24.929688)" fill="#202124"/>
<use data-text="/" xlink:href="#font_1_10" transform="matrix(4.24,0,0,-4.24,88.18245,24.929688)" fill="#202124"/>
<use data-text="4" xlink:href="#font_1_11" transform="matrix(4.24,0,0,-4.24,89.36117,24.929688)" fill="#202124"/>
<use data-text="0" xlink:href="#font_1_1" transform="matrix(4.24,0,0,-4.24,91.718608,24.929688)" fill="#202124"/>
<use data-text="T" xlink:href="#font_1_9" transform="matrix(4.24,0,0,-4.24,75.55078,39.89453)" fill="#202124"/>
<use data-text="3" xlink:href="#font_1_12" transform="matrix(4.24,0,0,-4.24,78.14142,39.89453)" fill="#202124"/>
<use data-text="/" xlink:href="#font_1_10" transform="matrix(4.24,0,0,-4.24,80.498859,39.89453)" fill="#202124"/>
<use data-text="6" xlink:href="#font_1_8" transform="matrix(4.24,0,0,-4.24,81.677577,39.89453)" fill="#202124"/>
<use data-text="0" xlink:href="#font_1_1" transform="matrix(4.24,0,0,-4.24,84.03501,39.89453)" fill="#202124"/>
<use data-text="T" xlink:href="#font_1_9" transform="matrix(4.24,0,0,-4.24,69.67969,55.585939)" fill="#202124"/>
<use data-text="4" xlink:href="#font_1_11" transform="matrix(4.24,0,0,-4.24,72.270328,55.585939)" fill="#202124"/>
<use data-text="/" xlink:href="#font_1_10" transform="matrix(4.24,0,0,-4.24,74.62776,55.585939)" fill="#202124"/>
<use data-text="8" xlink:href="#font_1_5" transform="matrix(4.24,0,0,-4.24,75.80648,55.585939)" fill="#202124"/>
<use data-text="0" xlink:href="#font_1_1" transform="matrix(4.24,0,0,-4.24,78.16392,55.585939)" fill="#202124"/>
<path transform="matrix(1,0,0,1,0,-17.5)" d="M158.617 30.328H222.504V81.18H158.617Z" fill="#ffffff"/>
<path transform="matrix(1,0,0,1,0,-17.5)" stroke-width=".32" stroke-linecap="butt" stroke-linejoin="round" fill="none" stroke="#55585e" d="M161.523 81.18V82.781"/>
<use data-text="2" xlink:href="#font_1_7" transform="matrix(4.4,0,0,-4.4,159.11719,69.390628)" fill="#55585e"/>
<use data-text="0" xlink:href="#font_1_1" transform="matrix(4.4,0,0,-4.4,161.56359,69.390628)" fill="#55585e"/>
<path transform="matrix(1,0,0,1,0,-17.5)" stroke-width=".32" stroke-linecap="butt" stroke-linejoin="round" fill="none" stroke="#55585e" d="M180.883 81.18V82.781"/>
<use data-text="4" xlink:href="#font_1_11" transform="matrix(4.4,0,0,-4.4,178.51172,69.390628)" fill="#55585e"/>
<use data-text="0" xlink:href="#font_1_1" transform="matrix(4.4,0,0,-4.4,180.95812,69.390628)" fill="#55585e"/>
<path transform="matrix(1,0,0,1,0,-17.5)" stroke-width=".32" stroke-linecap="butt" stroke-linejoin="round" fill="none" stroke="#55585e" d="M200.242 81.18V82.781"/>
<use data-text="6" xlink:href="#font_1_8" transform="matrix(4.4,0,0,-4.4,197.8164,69.390628)" fill="#55585e"/>
<use data-text="0" xlink:href="#font_1_1" transform="matrix(4.4,0,0,-4.4,200.2628,69.390628)" fill="#55585e"/>
<path transform="matrix(1,0,0,1,0,-17.5)" stroke-width=".32" stroke-linecap="butt" stroke-linejoin="round" fill="none" stroke="#55585e" d="M219.602 81.18V82.781"/>
<use data-text="8" xlink:href="#font_1_5" transform="matrix(4.4,0,0,-4.4,217.17188,69.390628)" fill="#55585e"/>
<use data-text="0" xlink:href="#font_1_1" transform="matrix(4.4,0,0,-4.4,219.61827,69.390628)" fill="#55585e"/>
<g clip-path="url(#clip_8)">
<path transform="matrix(1,0,0,1,0,-17.5)" stroke-width=".28" stroke-linecap="square" stroke-linejoin="round" fill="none" stroke="#e4e6e9" d="M158.617 77.27H222.504"/>
</g>
<path transform="matrix(1,0,0,1,0,-17.5)" stroke-width=".32" stroke-linecap="butt" stroke-linejoin="round" fill="none" stroke="#55585e" d="M158.617 77.27H157.02"/>
<use data-text="1" xlink:href="#font_1_6" transform="matrix(4.4,0,0,-4.4,151.375,61.34375)" fill="#55585e"/>
<use data-text="0" xlink:href="#font_1_1" transform="matrix(4.4,0,0,-4.4,153.8214,61.34375)" fill="#55585e"/>
<g clip-path="url(#clip_9)">
<path transform="matrix(1,0,0,1,0,-17.5)" stroke-width=".28" stroke-linecap="square" stroke-linejoin="round" fill="none" stroke="#e4e6e9" d="M158.617 57.711H222.504"/>
</g>
<path transform="matrix(1,0,0,1,0,-17.5)" stroke-width=".32" stroke-linecap="butt" stroke-linejoin="round" fill="none" stroke="#55585e" d="M158.617 57.711H157.02"/>
<use data-text="2" xlink:href="#font_1_7" transform="matrix(4.4,0,0,-4.4,151.375,41.785158)" fill="#55585e"/>
<use data-text="0" xlink:href="#font_1_1" transform="matrix(4.4,0,0,-4.4,153.8214,41.785158)" fill="#55585e"/>
<g clip-path="url(#clip_10)">
<path transform="matrix(1,0,0,1,0,-17.5)" stroke-width=".28" stroke-linecap="square" stroke-linejoin="round" fill="none" stroke="#e4e6e9" d="M158.617 38.148H222.504"/>
</g>
<path transform="matrix(1,0,0,1,0,-17.5)" stroke-width=".32" stroke-linecap="butt" stroke-linejoin="round" fill="none" stroke="#55585e" d="M158.617 38.148H157.02"/>
<use data-text="3" xlink:href="#font_1_12" transform="matrix(4.4,0,0,-4.4,151.375,22.226563)" fill="#55585e"/>
<use data-text="0" xlink:href="#font_1_1" transform="matrix(4.4,0,0,-4.4,153.8214,22.226563)" fill="#55585e"/>
<path transform="matrix(1,0,0,1,0,-17.5)" d="M161.523 53.211 174.379 52.953 161.523 70.227ZM161.523 53.211" fill="#168c7a" fill-opacity=".12"/>
<path transform="matrix(1,0,0,1,0,-17.5)" d="M174.379 52.953 180.883 52.82 200.242 64.359 219.602 71.988V38.543L200.242 36.391 180.883 44.215ZM174.379 52.953" fill="#c43c77" fill-opacity=".12"/>
<path transform="matrix(1,0,0,1,0,-17.5)" stroke-width=".36" stroke-linecap="square" stroke-linejoin="round" fill="none" stroke="#303236" d="M158.617 81.18V30.328"/>
<path transform="matrix(1,0,0,1,0,-17.5)" stroke-width=".36" stroke-linecap="square" stroke-linejoin="round" fill="none" stroke="#303236" d="M158.617 81.18H222.504"/>
<path transform="matrix(1,0,0,1,0,-17.5)" stroke-width=".8" stroke-linecap="square" stroke-linejoin="round" fill="none" stroke="#168c7a" d="M161.523 53.211 180.883 52.82 200.242 64.359 219.602 71.988"/>
<path transform="matrix(1,0,0,1,0,-17.5)" d="M161.523 54.41C161.84 54.41 162.145 54.285 162.371 54.059 162.598 53.836 162.723 53.531 162.723 53.211 162.723 52.895 162.598 52.586 162.371 52.363 162.145 52.137 161.84 52.012 161.523 52.012 161.203 52.012 160.898 52.137 160.676 52.363 160.449 52.586 160.324 52.895 160.324 53.211 160.324 53.531 160.449 53.836 160.676 54.059 160.898 54.285 161.203 54.41 161.523 54.41ZM161.523 54.41" fill="#ffffff"/>
<path transform="matrix(1,0,0,1,0,-17.5)" stroke-width=".6" stroke-linecap="butt" stroke-linejoin="round" fill="none" stroke="#168c7a" d="M161.523 54.41C161.84 54.41 162.145 54.285 162.371 54.059 162.598 53.836 162.723 53.531 162.723 53.211 162.723 52.895 162.598 52.586 162.371 52.363 162.145 52.137 161.84 52.012 161.523 52.012 161.203 52.012 160.898 52.137 160.676 52.363 160.449 52.586 160.324 52.895 160.324 53.211 160.324 53.531 160.449 53.836 160.676 54.059 160.898 54.285 161.203 54.41 161.523 54.41ZM161.523 54.41"/>
<path transform="matrix(1,0,0,1,0,-17.5)" d="M180.883 54.02C181.199 54.02 181.504 53.895 181.73 53.668 181.957 53.445 182.082 53.137 182.082 52.82 182.082 52.5 181.957 52.195 181.73 51.973 181.504 51.746 181.199 51.621 180.883 51.621 180.562 51.621 180.258 51.746 180.035 51.973 179.809 52.195 179.684 52.5 179.684 52.82 179.684 53.137 179.809 53.445 180.035 53.668 180.258 53.895 180.562 54.02 180.883 54.02ZM180.883 54.02" fill="#ffffff"/>
<path transform="matrix(1,0,0,1,0,-17.5)" stroke-width=".6" stroke-linecap="butt" stroke-linejoin="round" fill="none" stroke="#168c7a" d="M180.883 54.02C181.199 54.02 181.504 53.895 181.73 53.668 181.957 53.445 182.082 53.137 182.082 52.82 182.082 52.5 181.957 52.195 181.73 51.973 181.504 51.746 181.199 51.621 180.883 51.621 180.562 51.621 180.258 51.746 180.035 51.973 179.809 52.195 179.684 52.5 179.684 52.82 179.684 53.137 179.809 53.445 180.035 53.668 180.258 53.895 180.562 54.02 180.883 54.02ZM180.883 54.02"/>
<path transform="matrix(1,0,0,1,0,-17.5)" d="M200.242 65.559C200.559 65.559 200.863 65.434 201.09 65.207 201.316 64.984 201.441 64.68 201.441 64.359 201.441 64.043 201.316 63.738 201.09 63.512 200.863 63.285 200.559 63.16 200.242 63.16 199.922 63.16 199.617 63.285 199.391 63.512 199.168 63.738 199.043 64.043 199.043 64.359 199.043 64.68 199.168 64.984 199.391 65.207 199.617 65.434 199.922 65.559 200.242 65.559ZM200.242 65.559" fill="#ffffff"/>
<path transform="matrix(1,0,0,1,0,-17.5)" stroke-width=".6" stroke-linecap="butt" stroke-linejoin="round" fill="none" stroke="#168c7a" d="M200.242 65.559C200.559 65.559 200.863 65.434 201.09 65.207 201.316 64.984 201.441 64.68 201.441 64.359 201.441 64.043 201.316 63.738 201.09 63.512 200.863 63.285 200.559 63.16 200.242 63.16 199.922 63.16 199.617 63.285 199.391 63.512 199.168 63.738 199.043 64.043 199.043 64.359 199.043 64.68 199.168 64.984 199.391 65.207 199.617 65.434 199.922 65.559 200.242 65.559ZM200.242 65.559"/>
<path transform="matrix(1,0,0,1,0,-17.5)" d="M219.602 73.188C219.918 73.188 220.223 73.062 220.449 72.836 220.676 72.613 220.801 72.309 220.801 71.988 220.801 71.672 220.676 71.363 220.449 71.141 220.223 70.914 219.918 70.789 219.602 70.789 219.281 70.789 218.977 70.914 218.75 71.141 218.527 71.363 218.398 71.672 218.398 71.988 218.398 72.309 218.527 72.613 218.75 72.836 218.977 73.062 219.281 73.188 219.602 73.188ZM219.602 73.188" fill="#ffffff"/>
<path transform="matrix(1,0,0,1,0,-17.5)" stroke-width=".6" stroke-linecap="butt" stroke-linejoin="round" fill="none" stroke="#168c7a" d="M219.602 73.188C219.918 73.188 220.223 73.062 220.449 72.836 220.676 72.613 220.801 72.309 220.801 71.988 220.801 71.672 220.676 71.363 220.449 71.141 220.223 70.914 219.918 70.789 219.602 70.789 219.281 70.789 218.977 70.914 218.75 71.141 218.527 71.363 218.398 71.672 218.398 71.988 218.398 72.309 218.527 72.613 218.75 72.836 218.977 73.062 219.281 73.188 219.602 73.188ZM219.602 73.188"/>
<path transform="matrix(1,0,0,1,0,-17.5)" stroke-width=".8" stroke-linecap="butt" stroke-dasharray="2.4,1.2" stroke-linejoin="round" fill="none" stroke="#c43c77" d="M161.523 70.227 180.883 44.215 200.242 36.391 219.602 38.543"/>
<path transform="matrix(1,0,0,1,0,-17.5)" d="M160.402 69.109H162.64V71.347H160.402Z" fill="#ffffff"/>
<path transform="matrix(1,0,0,1,0,-17.5)" stroke-width=".6" stroke-linecap="butt" stroke-linejoin="round" fill="none" stroke="#c43c77" d="M160.402 69.109H162.64V71.347H160.402Z"/>
<path transform="matrix(1,0,0,1,0,-17.5)" d="M179.762 43.094H182V45.332H179.762Z" fill="#ffffff"/>
<path transform="matrix(1,0,0,1,0,-17.5)" stroke-width=".6" stroke-linecap="butt" stroke-linejoin="round" fill="none" stroke="#c43c77" d="M179.762 43.094H182V45.332H179.762Z"/>
<path transform="matrix(1,0,0,1,0,-17.5)" d="M199.121 35.27H201.35901V37.512H199.121Z" fill="#ffffff"/>
<path transform="matrix(1,0,0,1,0,-17.5)" stroke-width=".6" stroke-linecap="butt" stroke-linejoin="round" fill="none" stroke="#c43c77" d="M199.121 35.27H201.35901V37.512H199.121Z"/>
<path transform="matrix(1,0,0,1,0,-17.5)" d="M218.48 37.422H220.718V39.66H218.48Z" fill="#ffffff"/>
<path transform="matrix(1,0,0,1,0,-17.5)" stroke-width=".6" stroke-linecap="butt" stroke-linejoin="round" fill="none" stroke="#c43c77" d="M218.48 37.422H220.718V39.66H218.48Z"/>
<path transform="matrix(1,0,0,1,0,-17.5)" stroke-width=".8" stroke-linecap="square" stroke-linejoin="round" fill="none" stroke="#168c7a" d="M161.27 34.473H167.391"/>
<path transform="matrix(1,0,0,1,0,-17.5)" d="M164.332 35.672C164.648 35.672 164.953 35.543 165.18 35.32 165.402 35.094 165.531 34.789 165.531 34.473 165.531 34.152 165.402 33.848 165.18 33.621 164.953 33.398 164.648 33.27 164.332 33.27 164.012 33.27 163.707 33.398 163.48 33.621 163.258 33.848 163.129 34.152 163.129 34.473 163.129 34.789 163.258 35.094 163.48 35.32 163.707 35.543 164.012 35.672 164.332 35.672ZM164.332 35.672" fill="#ffffff"/>
<path transform="matrix(1,0,0,1,0,-17.5)" stroke-width=".6" stroke-linecap="butt" stroke-linejoin="round" fill="none" stroke="#168c7a" d="M164.332 35.672C164.648 35.672 164.953 35.543 165.18 35.32 165.402 35.094 165.531 34.789 165.531 34.473 165.531 34.152 165.402 33.848 165.18 33.621 164.953 33.398 164.648 33.27 164.332 33.27 164.012 33.27 163.707 33.398 163.48 33.621 163.258 33.848 163.129 34.152 163.129 34.473 163.129 34.789 163.258 35.094 163.48 35.32 163.707 35.543 164.012 35.672 164.332 35.672ZM164.332 35.672"/>
<path transform="matrix(1,0,0,1,0,-17.5)" stroke-width=".8" stroke-linecap="butt" stroke-dasharray="2.4,1.2" stroke-linejoin="round" fill="none" stroke="#c43c77" d="M161.27 39.223H167.391"/>
<path transform="matrix(1,0,0,1,0,-17.5)" d="M163.211 38.102H165.449V40.344H163.211Z" fill="#ffffff"/>
<path transform="matrix(1,0,0,1,0,-17.5)" stroke-width=".6" stroke-linecap="butt" stroke-linejoin="round" fill="none" stroke="#c43c77" d="M163.211 38.102H165.449V40.344H163.211Z"/>
<use data-text="M" xlink:href="#font_11_46" transform="matrix(4.88,0,0,-4.88,41.14553,75.421878)" fill="#202124"/>
<use data-text="a" xlink:href="#font_11_66" transform="matrix(4.88,0,0,-4.88,45.371614,75.421878)" fill="#202124"/>
<use data-text="t" xlink:href="#font_11_85" transform="matrix(4.88,0,0,-4.88,47.84577,75.421878)" fill="#202124"/>
<use data-text="c" xlink:href="#font_11_68" transform="matrix(4.88,0,0,-4.88,49.475694,75.421878)" fill="#202124"/>
<use data-text="h" xlink:href="#font_11_73" transform="matrix(4.88,0,0,-4.88,51.652173,75.421878)" fill="#202124"/>
<use data-text="e" xlink:href="#font_11_70" transform="matrix(4.88,0,0,-4.88,54.40449,75.421878)" fill="#202124"/>
<use data-text="d" xlink:href="#font_11_69" transform="matrix(4.88,0,0,-4.88,56.80057,75.421878)" fill="#202124"/>
<use data-text=" " xlink:href="#font_11_1" transform="matrix(4.88,0,0,-4.88,59.55777,75.421878)" fill="#202124"/>
<use data-text="I" xlink:href="#font_11_42" transform="matrix(4.88,0,0,-4.88,60.91441,75.421878)" fill="#202124"/>
<use data-text="F" xlink:href="#font_11_39" transform="matrix(4.88,0,0,-4.88,62.49553,75.421878)" fill="#202124"/>
<use data-text="E" xlink:href="#font_11_38" transform="matrix(4.88,0,0,-4.88,65.11609,75.421878)" fill="#202124"/>
<use data-text="v" xlink:href="#font_11_87" transform="matrix(4.88,0,0,-4.88,67.92697,75.421878)" fill="#202124"/>
<use data-text="a" xlink:href="#font_11_66" transform="matrix(4.88,0,0,-4.88,70.33769,75.421878)" fill="#202124"/>
<use data-text="l" xlink:href="#font_11_77" transform="matrix(4.88,0,0,-4.88,72.81185,75.421878)" fill="#202124"/>
<use data-text=" " xlink:href="#font_11_1" transform="matrix(4.88,0,0,-4.88,74.18801,75.421878)" fill="#202124"/>
<use data-text="m" xlink:href="#font_11_78" transform="matrix(4.88,0,0,-4.88,75.544658,75.421878)" fill="#202124"/>
<use data-text="e" xlink:href="#font_11_70" transform="matrix(4.88,0,0,-4.88,79.65849,75.421878)" fill="#202124"/>
<use data-text="a" xlink:href="#font_11_66" transform="matrix(4.88,0,0,-4.88,82.05457,75.421878)" fill="#202124"/>
<use data-text="n" xlink:href="#font_11_79" transform="matrix(4.88,0,0,-4.88,84.52873,75.421878)" fill="#202124"/>
<use data-text="@" xlink:href="#font_11_33" transform="matrix(4.88,0,0,-4.88,87.300579,75.421878)" fill="#202124"/>
<use data-text="1" xlink:href="#font_11_18" transform="matrix(4.88,0,0,-4.88,91.89754,75.421878)" fill="#202124"/>
<use data-text="6" xlink:href="#font_11_23" transform="matrix(4.88,0,0,-4.88,94.61082,75.421878)" fill="#202124"/>
<use data-text="&#x0394;" xlink:href="#font_11_464" transform="matrix(0,-4.88,-4.88,-0,24.58594,68.45393)" fill="#202124"/>
<use data-text=" " xlink:href="#font_11_1" transform="matrix(0,-4.88,-4.88,-0,24.58594,65.60401)" fill="#202124"/>
<use data-text="M" xlink:href="#font_11_46" transform="matrix(0,-4.88,-4.88,-0,24.58594,64.247379)" fill="#202124"/>
<use data-text="A" xlink:href="#font_11_34" transform="matrix(0,-4.88,-4.88,-0,24.58594,60.021295)" fill="#202124"/>
<use data-text="T" xlink:href="#font_11_53" transform="matrix(0,-4.88,-4.88,-0,24.58594,56.902975)" fill="#202124"/>
<use data-text="H" xlink:href="#font_11_41" transform="matrix(0,-4.88,-4.88,-0,24.58594,53.989614)" fill="#202124"/>
<use data-text="-" xlink:href="#font_11_14" transform="matrix(0,-4.88,-4.88,-0,24.58594,50.388174)" fill="#202124"/>
<use data-text="5" xlink:href="#font_11_22" transform="matrix(0,-4.88,-4.88,-0,24.58594,48.83145)" fill="#202124"/>
<use data-text="0" xlink:href="#font_11_17" transform="matrix(0,-4.88,-4.88,-0,24.58594,46.11817)" fill="#202124"/>
<use data-text="0" xlink:href="#font_11_17" transform="matrix(0,-4.88,-4.88,-0,24.58594,43.404893)" fill="#202124"/>
<use data-text=" " xlink:href="#font_11_1" transform="matrix(0,-4.88,-4.88,-0,24.58594,40.691614)" fill="#202124"/>
<use data-text="m" xlink:href="#font_11_78" transform="matrix(0,-4.88,-4.88,-0,24.58594,39.334974)" fill="#202124"/>
<use data-text="e" xlink:href="#font_11_70" transform="matrix(0,-4.88,-4.88,-0,24.58594,35.22113)" fill="#202124"/>
<use data-text="a" xlink:href="#font_11_66" transform="matrix(0,-4.88,-4.88,-0,24.58594,32.82505)" fill="#202124"/>
<use data-text="n" xlink:href="#font_11_79" transform="matrix(0,-4.88,-4.88,-0,24.58594,30.350892)" fill="#202124"/>
<use data-text="@" xlink:href="#font_11_33" transform="matrix(0,-4.88,-4.88,-0,24.58594,27.579049)" fill="#202124"/>
<use data-text="1" xlink:href="#font_11_18" transform="matrix(0,-4.88,-4.88,-0,24.58594,22.982087)" fill="#202124"/>
<use data-text="6" xlink:href="#font_11_23" transform="matrix(0,-4.88,-4.88,-0,24.58594,20.268807)" fill="#202124"/>
<use data-text=" " xlink:href="#font_11_1" transform="matrix(0,-4.88,-4.88,-0,24.58594,17.555527)" fill="#202124"/>
<use data-text="(" xlink:href="#font_11_9" transform="matrix(0,-4.88,-4.88,-0,24.58594,16.198884)" fill="#202124"/>
<use data-text="%" xlink:href="#font_11_6" transform="matrix(0,-4.88,-4.88,-0,24.58594,14.163925)" fill="#202124"/>
<use data-text=")" xlink:href="#font_11_10" transform="matrix(0,-4.88,-4.88,-0,24.58594,10.006165)" fill="#202124"/>
<use data-text="a" xlink:href="#font_12_66" transform="matrix(5.76,0,0,-5.76,33.275625,11.863281)" fill="#202124"/>
<use data-text="C" xlink:href="#font_12_36" transform="matrix(5.44,0,0,-5.44,42.18381,10.425781)" fill="#202124"/>
<use data-text="r" xlink:href="#font_12_83" transform="matrix(5.44,0,0,-5.44,45.65453,10.425781)" fill="#202124"/>
<use data-text="o" xlink:href="#font_12_80" transform="matrix(5.44,0,0,-5.44,47.94477,10.425781)" fill="#202124"/>
<use data-text="s" xlink:href="#font_12_84" transform="matrix(5.44,0,0,-5.44,51.083654,10.425781)" fill="#202124"/>
<use data-text="s" xlink:href="#font_12_84" transform="matrix(5.44,0,0,-5.44,53.51533,10.425781)" fill="#202124"/>
<use data-text="-" xlink:href="#font_12_14" transform="matrix(5.44,0,0,-5.44,55.94701,10.425781)" fill="#202124"/>
<use data-text="T" xlink:href="#font_12_53" transform="matrix(5.44,0,0,-5.44,57.72045,10.425781)" fill="#202124"/>
<use data-text="a" xlink:href="#font_12_66" transform="matrix(5.44,0,0,-5.44,61.00077,10.425781)" fill="#202124"/>
<use data-text="s" xlink:href="#font_12_84" transform="matrix(5.44,0,0,-5.44,63.96013,10.425781)" fill="#202124"/>
<use data-text="k" xlink:href="#font_12_76" transform="matrix(5.44,0,0,-5.44,66.39181,10.425781)" fill="#202124"/>
<use data-text=" " xlink:href="#font_12_1" transform="matrix(5.44,0,0,-5.44,69.40013,10.425781)" fill="#202124"/>
<use data-text="O" xlink:href="#font_12_48" transform="matrix(5.44,0,0,-5.44,70.98317,10.425781)" fill="#202124"/>
<use data-text="u" xlink:href="#font_12_86" transform="matrix(5.44,0,0,-5.44,75.07405,10.425781)" fill="#202124"/>
<use data-text="t" xlink:href="#font_12_85" transform="matrix(5.44,0,0,-5.44,78.33805,10.425781)" fill="#202124"/>
<use data-text="c" xlink:href="#font_12_68" transform="matrix(5.44,0,0,-5.44,80.28557,10.425781)" fill="#202124"/>
<use data-text="o" xlink:href="#font_12_80" transform="matrix(5.44,0,0,-5.44,82.87501,10.425781)" fill="#202124"/>
<use data-text="m" xlink:href="#font_12_78" transform="matrix(5.44,0,0,-5.44,86.013889,10.425781)" fill="#202124"/>
<use data-text="e" xlink:href="#font_12_70" transform="matrix(5.44,0,0,-5.44,90.86636,10.425781)" fill="#202124"/>
<use data-text="s" xlink:href="#font_12_84" transform="matrix(5.44,0,0,-5.44,93.71693,10.425781)" fill="#202124"/>
<use data-text="I" xlink:href="#font_11_42" transform="matrix(4.88,0,0,-4.88,168.24355,75.359378)" fill="#202124"/>
<use data-text="F" xlink:href="#font_11_39" transform="matrix(4.88,0,0,-4.88,169.82466,75.359378)" fill="#202124"/>
<use data-text="-" xlink:href="#font_11_14" transform="matrix(4.88,0,0,-4.88,172.44522,75.359378)" fill="#202124"/>
<use data-text="R" xlink:href="#font_11_51" transform="matrix(4.88,0,0,-4.88,174.00194,75.359378)" fill="#202124"/>
<use data-text="L" xlink:href="#font_11_45" transform="matrix(4.88,0,0,-4.88,177.15442,75.359378)" fill="#202124"/>
<use data-text="V" xlink:href="#font_11_55" transform="matrix(4.88,0,0,-4.88,179.69202,75.359378)" fill="#202124"/>
<use data-text="R" xlink:href="#font_11_51" transform="matrix(4.88,0,0,-4.88,182.70786,75.359378)" fill="#202124"/>
<use data-text=" " xlink:href="#font_11_1" transform="matrix(4.88,0,0,-4.88,185.86034,75.359378)" fill="#202124"/>
<use data-text="t" xlink:href="#font_11_85" transform="matrix(4.88,0,0,-4.88,187.21698,75.359378)" fill="#202124"/>
<use data-text="e" xlink:href="#font_11_70" transform="matrix(4.88,0,0,-4.88,188.8469,75.359378)" fill="#202124"/>
<use data-text="a" xlink:href="#font_11_66" transform="matrix(4.88,0,0,-4.88,191.24298,75.359378)" fill="#202124"/>
<use data-text="c" xlink:href="#font_11_68" transform="matrix(4.88,0,0,-4.88,193.71715,75.359378)" fill="#202124"/>
<use data-text="h" xlink:href="#font_11_73" transform="matrix(4.88,0,0,-4.88,195.89363,75.359378)" fill="#202124"/>
<use data-text="e" xlink:href="#font_11_70" transform="matrix(4.88,0,0,-4.88,198.64595,75.359378)" fill="#202124"/>
<use data-text="r" xlink:href="#font_11_83" transform="matrix(4.88,0,0,-4.88,201.04204,75.359378)" fill="#202124"/>
<use data-text=" " xlink:href="#font_11_1" transform="matrix(4.88,0,0,-4.88,202.9062,75.359378)" fill="#202124"/>
<use data-text="s" xlink:href="#font_11_84" transform="matrix(4.88,0,0,-4.88,204.26285,75.359378)" fill="#202124"/>
<use data-text="t" xlink:href="#font_11_85" transform="matrix(4.88,0,0,-4.88,206.21485,75.359378)" fill="#202124"/>
<use data-text="e" xlink:href="#font_11_70" transform="matrix(4.88,0,0,-4.88,207.84476,75.359378)" fill="#202124"/>
<use data-text="p" xlink:href="#font_11_81" transform="matrix(4.88,0,0,-4.88,210.24085,75.359378)" fill="#202124"/>
<use data-text="S" xlink:href="#font_11_52" transform="matrix(0,-4.88,-4.88,-0,148.53907,63.701997)" fill="#202124"/>
<use data-text="h" xlink:href="#font_11_73" transform="matrix(0,-4.88,-4.88,-0,148.53907,60.98871)" fill="#202124"/>
<use data-text="a" xlink:href="#font_11_66" transform="matrix(0,-4.88,-4.88,-0,148.53907,58.23639)" fill="#202124"/>
<use data-text="r" xlink:href="#font_11_83" transform="matrix(0,-4.88,-4.88,-0,148.53907,55.762224)" fill="#202124"/>
<use data-text="e" xlink:href="#font_11_70" transform="matrix(0,-4.88,-4.88,-0,148.53907,53.898057)" fill="#202124"/>
<use data-text=" " xlink:href="#font_11_1" transform="matrix(0,-4.88,-4.88,-0,148.53907,51.50197)" fill="#202124"/>
<use data-text="o" xlink:href="#font_11_80" transform="matrix(0,-4.88,-4.88,-0,148.53907,50.145326)" fill="#202124"/>
<use data-text="f" xlink:href="#font_11_71" transform="matrix(0,-4.88,-4.88,-0,148.53907,47.515)" fill="#202124"/>
<use data-text=" " xlink:href="#font_11_1" transform="matrix(0,-4.88,-4.88,-0,148.53907,45.948518)" fill="#202124"/>
<use data-text="I" xlink:href="#font_11_42" transform="matrix(0,-4.88,-4.88,-0,148.53907,44.591875)" fill="#202124"/>
<use data-text="F" xlink:href="#font_11_39" transform="matrix(0,-4.88,-4.88,-0,148.53907,43.010759)" fill="#202124"/>
<use data-text=" " xlink:href="#font_11_1" transform="matrix(0,-4.88,-4.88,-0,148.53907,40.390199)" fill="#202124"/>
<use data-text="r" xlink:href="#font_11_83" transform="matrix(0,-4.88,-4.88,-0,148.53907,39.033555)" fill="#202124"/>
<use data-text="o" xlink:href="#font_11_80" transform="matrix(0,-4.88,-4.88,-0,148.53907,37.169389)" fill="#202124"/>
<use data-text="l" xlink:href="#font_11_77" transform="matrix(0,-4.88,-4.88,-0,148.53907,34.539064)" fill="#202124"/>
<use data-text="l" xlink:href="#font_11_77" transform="matrix(0,-4.88,-4.88,-0,148.53907,33.162904)" fill="#202124"/>
<use data-text="o" xlink:href="#font_11_80" transform="matrix(0,-4.88,-4.88,-0,148.53907,31.786744)" fill="#202124"/>
<use data-text="u" xlink:href="#font_11_86" transform="matrix(0,-4.88,-4.88,-0,148.53907,29.156418)" fill="#202124"/>
<use data-text="t" xlink:href="#font_11_85" transform="matrix(0,-4.88,-4.88,-0,148.53907,26.3797)" fill="#202124"/>
<use data-text="s" xlink:href="#font_11_84" transform="matrix(0,-4.88,-4.88,-0,148.53907,24.749787)" fill="#202124"/>
<use data-text=" " xlink:href="#font_11_1" transform="matrix(0,-4.88,-4.88,-0,148.53907,22.79779)" fill="#202124"/>
<use data-text="(" xlink:href="#font_11_9" transform="matrix(0,-4.88,-4.88,-0,148.53907,21.441147)" fill="#202124"/>
<use data-text="%" xlink:href="#font_11_6" transform="matrix(0,-4.88,-4.88,-0,148.53907,19.406189)" fill="#202124"/>
<use data-text=")" xlink:href="#font_11_10" transform="matrix(0,-4.88,-4.88,-0,148.53907,15.248428)" fill="#202124"/>
<use data-text="b" xlink:href="#font_12_67" transform="matrix(5.76,0,0,-5.76,154.72467,11.863281)" fill="#202124"/>
<use data-text="R" xlink:href="#font_12_51" transform="matrix(5.44,0,0,-5.44,169.44944,10.425781)" fill="#202124"/>
<use data-text="e" xlink:href="#font_12_70" transform="matrix(5.44,0,0,-5.44,173.09967,10.425781)" fill="#202124"/>
<use data-text="s" xlink:href="#font_12_84" transform="matrix(5.44,0,0,-5.44,175.95023,10.425781)" fill="#202124"/>
<use data-text="p" xlink:href="#font_12_81" transform="matrix(5.44,0,0,-5.44,178.38191,10.425781)" fill="#202124"/>
<use data-text="o" xlink:href="#font_12_80" transform="matrix(5.44,0,0,-5.44,181.59696,10.425781)" fill="#202124"/>
<use data-text="n" xlink:href="#font_12_79" transform="matrix(5.44,0,0,-5.44,184.73584,10.425781)" fill="#202124"/>
<use data-text="s" xlink:href="#font_12_84" transform="matrix(5.44,0,0,-5.44,188.02704,10.425781)" fill="#202124"/>
<use data-text="e" xlink:href="#font_12_70" transform="matrix(5.44,0,0,-5.44,190.45873,10.425781)" fill="#202124"/>
<use data-text=" " xlink:href="#font_12_1" transform="matrix(5.44,0,0,-5.44,193.30928,10.425781)" fill="#202124"/>
<use data-text="S" xlink:href="#font_12_52" transform="matrix(5.44,0,0,-5.44,194.89232,10.425781)" fill="#202124"/>
<use data-text="h" xlink:href="#font_12_73" transform="matrix(5.44,0,0,-5.44,197.98224,10.425781)" fill="#202124"/>
<use data-text="a" xlink:href="#font_12_66" transform="matrix(5.44,0,0,-5.44,201.22992,10.425781)" fill="#202124"/>
<use data-text="r" xlink:href="#font_12_83" transform="matrix(5.44,0,0,-5.44,204.18929,10.425781)" fill="#202124"/>
<use data-text="e" xlink:href="#font_12_70" transform="matrix(5.44,0,0,-5.44,206.47953,10.425781)" fill="#202124"/>
<use data-text="s" xlink:href="#font_12_84" transform="matrix(5.44,0,0,-5.44,209.33008,10.425781)" fill="#202124"/>
<use data-text="C" xlink:href="#font_11_36" transform="matrix(4.08,0,0,-4.08,168.0859,18.398438)" fill="#202124"/>
<use data-text="o" xlink:href="#font_11_80" transform="matrix(4.08,0,0,-4.08,170.66448,18.398438)" fill="#202124"/>
<use data-text="n" xlink:href="#font_11_79" transform="matrix(4.08,0,0,-4.08,172.8636,18.398438)" fill="#202124"/>
<use data-text="t" xlink:href="#font_11_85" transform="matrix(4.08,0,0,-4.08,175.18105,18.398438)" fill="#202124"/>
<use data-text="e" xlink:href="#font_11_70" transform="matrix(4.08,0,0,-4.08,176.54376,18.398438)" fill="#202124"/>
<use data-text="n" xlink:href="#font_11_79" transform="matrix(4.08,0,0,-4.08,178.54705,18.398438)" fill="#202124"/>
<use data-text="t" xlink:href="#font_11_85" transform="matrix(4.08,0,0,-4.08,180.86449,18.398438)" fill="#202124"/>
<use data-text="f" xlink:href="#font_11_71" transform="matrix(4.08,0,0,-4.08,182.2272,18.398438)" fill="#202124"/>
<use data-text="u" xlink:href="#font_11_86" transform="matrix(4.08,0,0,-4.08,183.53688,18.398438)" fill="#202124"/>
<use data-text="l" xlink:href="#font_11_77" transform="matrix(4.08,0,0,-4.08,185.8584,18.398438)" fill="#202124"/>
<use data-text="S" xlink:href="#font_11_52" transform="matrix(4.08,0,0,-4.08,168.13692,23.148438)" fill="#202124"/>
<use data-text="h" xlink:href="#font_11_73" transform="matrix(4.08,0,0,-4.08,170.4054,23.148438)" fill="#202124"/>
<use data-text="o" xlink:href="#font_11_80" transform="matrix(4.08,0,0,-4.08,172.70652,23.148438)" fill="#202124"/>
<use data-text="r" xlink:href="#font_11_83" transform="matrix(4.08,0,0,-4.08,174.90564,23.148438)" fill="#202124"/>
<use data-text="t" xlink:href="#font_11_85" transform="matrix(4.08,0,0,-4.08,176.4642,23.148438)" fill="#202124"/>
<use data-text="c" xlink:href="#font_11_68" transform="matrix(4.08,0,0,-4.08,177.82692,23.148438)" fill="#202124"/>
<use data-text="u" xlink:href="#font_11_86" transform="matrix(4.08,0,0,-4.08,179.6466,23.148438)" fill="#202124"/>
<use data-text="t" xlink:href="#font_11_85" transform="matrix(4.08,0,0,-4.08,181.96813,23.148438)" fill="#202124"/>
</svg>
